<svg width="15" height="14" viewBox="0 0 15 14" fill="none" xmlns="http://www.w3.org/2000/svg">
<path d="M14.017 13.4984C14.2782 13.2363 14.2782 12.8116 14.017 12.5495L8.47363 6.98428L14.017 1.41905C14.2782 1.15689 14.2782 0.732219 14.017 0.47012C13.7559 0.207958 13.3329 0.207958 13.0718 0.47012L7.52842 6.03535L1.98501 0.47012C1.72388 0.207958 1.30088 0.207958 1.0398 0.47012C0.909268 0.60117 0.843969 0.772924 0.843969 0.944616C0.843969 1.11631 0.909268 1.288 1.0398 1.41911L6.58321 6.98435L1.0398 12.5496C0.909268 12.6806 0.843969 12.8524 0.843969 13.0241C0.843969 13.1958 0.909268 13.3675 1.0398 13.4986C1.30094 13.7607 1.72394 13.7607 1.98501 13.4986L7.52842 7.93334L13.0718 13.4986C13.3329 13.7606 13.7559 13.7606 14.017 13.4984Z" fill="#131313"/>
</svg>
