<svg width="24" height="24" viewBox="0 0 24 24" fill="none" xmlns="http://www.w3.org/2000/svg">
<path d="M23.0307 0.969237C22.5868 0.52531 21.8677 0.52531 21.4239 0.969237L12.0001 10.393L2.57627 0.969237C2.13235 0.52531 1.41324 0.52531 0.96942 0.969237C0.525493 1.41317 0.525493 2.13227 0.96942 2.57609L10.3932 11.9999L0.96942 21.4237C0.525493 21.8676 0.525493 22.5867 0.96942 23.0305C1.19133 23.2525 1.48217 23.3635 1.7729 23.3635C2.06363 23.3635 2.35436 23.2525 2.57638 23.0305L12.0002 13.6067L21.424 23.0305C21.6459 23.2525 21.9367 23.3635 22.2275 23.3635C22.5182 23.3635 22.8089 23.2525 23.0309 23.0305C23.4749 22.5866 23.4749 21.8675 23.0309 21.4237L13.6071 11.9999L23.0309 2.57609C23.4747 2.13227 23.4747 1.41317 23.0307 0.969237Z" fill="#131313"/>
</svg>
