<svg width="30" height="30" viewBox="0 0 30 30" fill="none" xmlns="http://www.w3.org/2000/svg">
<path d="M27.2728 0H2.7273C1.22382 0 0 1.22312 0 2.7273V27.2728C0 28.7769 1.22382 30.0001 2.7273 30.0001H27.2728C28.7762 30.0001 30.0001 28.7769 30.0001 27.2728V2.7273C30 1.22312 28.7762 0 27.2728 0ZM28.6364 27.2728C28.6364 28.0245 28.0251 28.6364 27.2728 28.6364H2.7273C1.97489 28.6364 1.36368 28.0245 1.36368 27.2728V2.7273C1.36368 1.97559 1.97495 1.36368 2.7273 1.36368H27.2728C28.0252 1.36368 28.6364 1.97559 28.6364 2.7273V27.2728Z" fill="white"/>
<path d="M21.6187 8.38153C21.3523 8.11517 20.9209 8.11517 20.6546 8.38153L15.0003 14.0358L9.34601 8.38153C9.07965 8.11517 8.64819 8.11517 8.3819 8.38153C8.11554 8.64789 8.11554 9.07935 8.3819 9.34564L14.0362 14.9999L8.3819 20.6542C8.11554 20.9206 8.11554 21.352 8.3819 21.6183C8.51504 21.7515 8.68955 21.8181 8.86398 21.8181C9.03842 21.8181 9.21286 21.7515 9.34607 21.6183L15.0004 15.964L20.6546 21.6183C20.7878 21.7515 20.9623 21.8181 21.1367 21.8181C21.3112 21.8181 21.4856 21.7515 21.6188 21.6183C21.8852 21.352 21.8852 20.9205 21.6188 20.6542L15.9645 14.9999L21.6188 9.34564C21.885 9.07935 21.885 8.64789 21.6187 8.38153Z" fill="white"/>
</svg>
