<svg width="155" height="79" viewBox="0 0 155 79" fill="none" xmlns="http://www.w3.org/2000/svg">
<g clip-path="url(#clip0)">
<path d="M0 14.975V30H6.41294C14.0887 30 14.7572 29.85 16.738 27.875C17.7284 26.9 18.0998 26.25 18.5208 25C19.9321 20.525 19.0903 17.275 15.9704 15.05L14.7324 14.15L15.8714 13C17.3075 11.55 17.8275 10.075 17.8275 7.4C17.8275 4.125 16.4904 2 13.643 0.675003C12.603 0.175003 11.984 0.125004 6.26438 0.050005L0 -0.0499954V14.975ZM12.9744 3.6C15.0543 4.825 15.6981 7.55 14.4848 10.075C13.5192 12.15 11.4888 12.8 6.36342 12.7L2.94649 12.625L2.89697 7.675L2.84744 2.7L7.30431 2.8C11.6869 2.875 11.7859 2.875 12.9744 3.6ZM12.1821 15.75C14.4601 16.4 16.3419 18.775 16.3419 21C16.3419 23.95 14.7819 26.4 12.5535 26.95C11.9097 27.125 9.55751 27.25 7.13099 27.25H2.84744V21.375V15.5H7.05671C9.38419 15.5 11.6869 15.625 12.1821 15.75Z" fill="white"/>
<path d="M84.1855 14.975V30H90.5737C95.4268 30 97.259 29.925 98.1504 29.65C101.344 28.675 103.102 26.125 103.424 21.975C103.523 20.55 103.474 19.775 103.152 18.8C102.657 17.35 101.023 15.35 99.7351 14.65L98.8684 14.175L99.9331 13.2C101.592 11.65 102.112 10.325 102.137 7.5C102.137 5.525 102.038 4.95 101.592 4.1C100.825 2.625 99.636 1.525 98.0514 0.774998C96.7143 0.149998 96.5657 0.124998 90.4499 0.0499973L84.1855 -0.0250034V14.975ZM96.2191 3.125C98.2742 3.725 99.3389 5.225 99.3389 7.475C99.3389 9.8 98.6208 11.05 96.6895 12.075C95.8229 12.55 95.2039 12.625 91.4403 12.7L87.1568 12.8V7.775V2.75H91.0689C93.8173 2.75 95.3525 2.85 96.2191 3.125ZM96.5905 15.8C99.1161 16.65 100.527 18.525 100.527 21C100.527 22.975 100.156 24.225 99.2399 25.375C97.9028 27 97.4819 27.1 92.0593 27.2L87.1568 27.3V21.4V15.5H91.4651C94.0649 15.5 96.0705 15.625 96.5905 15.8Z" fill="white"/>
<path d="M30.5794 9.85006C29.9109 10.0251 29.0195 10.3251 28.5986 10.4751C27.6577 10.8501 25.5035 12.3001 25.5035 12.5751C25.5035 12.7001 25.8749 13.1751 26.3454 13.6751L27.1872 14.5751L27.8805 13.9001C29.069 12.8001 31.0498 12.1751 33.4268 12.1501C35.1105 12.1251 35.7048 12.2251 36.3981 12.6251C37.5866 13.3501 38.1561 14.4751 38.3294 16.3751L38.4532 18.0001H35.3829C31.9164 18.0001 29.6137 18.4251 27.7815 19.3501C23.0027 21.8001 23.5227 28.6501 28.5986 30.1251C29.6632 30.4501 30.5794 30.5251 32.0155 30.4251C34.5658 30.2501 36.3238 29.4001 37.6609 27.7001L38.6265 26.4501V27.3001C38.6265 27.7501 38.7008 28.5501 38.7751 29.0501C38.9484 30.0001 38.9484 30.0001 40.1617 30.0001H41.3997L41.2511 29.0501C41.1768 28.5501 41.053 25.1501 40.9788 21.5001C40.8054 14.2251 40.6569 13.4001 39.295 11.8251C38.057 10.4001 36.3733 9.70006 33.922 9.60006C32.6593 9.55006 31.3222 9.65006 30.5794 9.85006ZM38.3046 21.7001C37.9827 25.3501 35.1848 27.8251 31.3222 27.8501C30.0099 27.8751 29.3909 27.7501 28.8709 27.4251C27.9548 26.8001 27.4101 25.4251 27.5586 24.0501C27.8557 21.3001 29.9604 20.3501 35.8781 20.2751L38.4532 20.2501L38.3046 21.7001Z" fill="white"/>
<path d="M54.473 9.725C53.2598 10.1 52.1208 10.825 51.0809 11.825L50.0162 12.85V11.425V10H48.5305H47.0449V20V30H48.5058H49.9666L50.0657 23.675C50.14 17.725 50.1647 17.3 50.7095 16.125C52.1456 12.95 55.3892 11.475 57.9147 12.8C60.1679 13.975 60.4155 15.025 60.4155 23.8V30H61.7526H63.0649L63.2135 24.3C63.362 17.925 63.5849 16.5 64.6991 14.825C66.6304 11.925 70.9882 11.5 72.8452 14.025C73.5633 14.975 73.7861 17.275 73.7861 23.925V30H75.2965H76.8317L76.6831 22.8C76.5345 14.95 76.386 13.925 75.0489 12.05C74.628 11.5 73.7614 10.725 73.1176 10.325C72.0529 9.7 71.6815 9.625 69.8245 9.625C68.0417 9.625 67.5465 9.725 66.4818 10.3C65.219 10.975 62.8916 13.225 62.8916 13.8C62.8668 13.975 62.5944 13.6 62.2726 12.95C61.5297 11.55 60.2174 10.4 58.7071 9.875C57.5433 9.475 55.513 9.4 54.473 9.725Z" fill="white"/>
<path d="M116.349 9.85C113.799 10.55 110.976 13.05 109.738 15.675C109.119 17 109.069 17.4 109.069 20.125C109.069 22.925 109.119 23.225 109.787 24.525C110.926 26.825 112.437 28.35 114.591 29.425C116.423 30.35 116.547 30.375 119.196 30.375C121.672 30.375 122.093 30.3 123.381 29.7C125.188 28.85 126.303 27.925 127.541 26.25C129.695 23.375 130.116 19 128.581 15.675C127.689 13.8 125.931 11.75 124.371 10.825C122.242 9.575 118.874 9.15 116.349 9.85ZM122.44 13.125C125.436 14.6 127.021 17.875 126.476 21.425C126.03 24.25 124.421 26.3 121.87 27.25C119.518 28.15 117.067 27.85 114.962 26.425C112.065 24.45 110.951 20.25 112.412 16.85C113.279 14.825 115.358 13.05 117.488 12.475C118.8 12.125 121.029 12.4 122.44 13.125Z" fill="white"/>
<path d="M141.802 9.7749C138.088 10.6499 134.919 14.1999 134.176 18.3249C133.235 23.4499 136.479 28.6749 141.48 30.1249C143.758 30.7999 146.878 30.5499 148.908 29.5249C150.889 28.5499 152.796 26.5249 153.836 24.3249C154.579 22.7499 154.628 22.4249 154.603 20.1249C154.603 17.2249 154.108 15.6499 152.573 13.6249C150.072 10.2999 145.888 8.7999 141.802 9.7749ZM147.398 12.9499C149.007 13.6749 150.642 15.4499 151.285 17.1999C152.35 20.0249 151.682 23.4999 149.626 25.6249C148.215 27.0999 146.829 27.6249 144.352 27.6249C142.545 27.6249 142.075 27.5249 140.985 26.9499C139.524 26.1749 138.311 24.8499 137.568 23.2749C136.825 21.5999 136.85 18.5999 137.642 16.7999C138.385 15.1249 140.49 13.1499 142.075 12.6249C143.585 12.1499 145.912 12.2749 147.398 12.9499Z" fill="white"/>
<path d="M37.6608 34.575C37.2151 35.025 37.3389 35.75 37.9579 36C38.5274 36.225 44.6432 37 45.9555 37C46.5002 37 46.7973 36.825 47.1192 36.275L47.5649 35.525L46.7478 35.4C46.3021 35.325 44.4203 35.1 42.5881 34.875C40.7558 34.675 38.9483 34.45 38.6017 34.375C38.255 34.325 37.8341 34.4 37.6608 34.575Z" fill="white"/>
<path d="M48.1835 36.375C47.9607 36.7 47.7874 37.075 47.7874 37.2C47.7874 37.325 48.753 37.525 49.9663 37.625C53.928 37.95 54.3984 38.175 50.8577 38.05L47.3665 37.925L46.8465 38.7C46.5494 39.1 46.3018 39.575 46.3018 39.725C46.3018 39.925 49.892 40 58.7067 40H71.1117L72.0773 39.225C72.5973 38.8 73.043 38.35 73.043 38.225C73.043 38.1 71.9535 38 70.5917 38C69.2546 38 64.0302 37.5 58.9048 36.875C53.8042 36.25 49.3968 35.75 49.1244 35.75C48.8273 35.75 48.4064 36.025 48.1835 36.375Z" fill="white"/>
<path d="M0.421218 38.275C-0.0739896 38.575 -0.12351 39.275 0.297416 39.7C0.52026 39.925 3.39246 40 11.6624 40H22.7551L23.2503 39.275C23.5474 38.875 23.7703 38.425 23.7703 38.275C23.7703 37.9 1.06499 37.9 0.421218 38.275Z" fill="white"/>
<path d="M24.7599 38.8C24.4875 39.25 24.2646 39.7 24.2646 39.8C24.2646 39.925 28.8701 40 34.5154 40H44.791L45.2862 39.275C45.5833 38.875 45.8062 38.425 45.8062 38.275C45.8062 38.075 42.8102 38 35.5306 38H25.2551L24.7599 38.8Z" fill="white"/>
<path d="M73.6125 39.025C73.0183 39.575 72.5479 40.1 72.5479 40.2C72.5479 40.3 72.845 40.425 73.2411 40.45C73.9592 40.5 74.4296 40.55 85.2747 41.875L92.4304 42.75L93.3961 42.1C93.9161 41.725 94.337 41.35 94.337 41.25C94.337 41.175 92.3562 40.875 89.9544 40.6L85.547 40.125L95.9959 40.05L106.445 40L106.94 39.275C107.237 38.875 107.46 38.425 107.46 38.275C107.46 38.075 102.78 38 91.0686 38L74.6525 38.025L73.6125 39.025Z" fill="white"/>
<path d="M108.475 38.725C108.178 39.125 107.955 39.575 107.955 39.725C107.955 39.925 111.1 40 118.8 40H129.645L130.685 39.2C131.255 38.75 131.725 38.3 131.725 38.2C131.725 38.1 126.6 38 120.36 38H108.97L108.475 38.725Z" fill="white"/>
<path d="M132.666 38.7C132.147 39.075 131.726 39.525 131.726 39.675C131.726 39.925 134.127 40 142.967 40C149.157 40 154.381 39.925 154.604 39.85C155.124 39.65 155.124 38.35 154.604 38.15C154.381 38.075 149.578 38 143.908 38L133.583 38.025L132.666 38.7Z" fill="white"/>
<path d="M94.9812 42.15C94.6097 42.5 94.3374 42.85 94.4364 42.925C94.5107 43 96.2192 43.25 98.2248 43.475L101.889 43.9L99.9085 44.075C98.819 44.175 91.6385 44.475 83.938 44.775L69.9484 45.3L69.4037 45.975C68.3638 47.2 68.5618 47.325 71.3845 47.15C72.7711 47.05 80.7192 46.7 89.0139 46.35C97.3334 46.025 106.247 45.65 108.822 45.525C113.452 45.325 113.65 45.35 122.317 46.4L131.107 47.5L132.394 46.925C133.558 46.425 134.053 46.025 133.533 45.975C133.409 45.975 131.329 45.725 128.878 45.4L124.421 44.85L128.63 44.675C144.626 44.075 152.574 43.725 153.713 43.6C154.926 43.475 155 43.425 155 42.75C155 42.35 154.901 41.975 154.777 41.9C154.678 41.825 152.178 41.875 149.281 42C146.359 42.125 137.123 42.525 128.754 42.875L113.527 43.525L105.158 42.525C100.552 41.95 96.5411 41.5 96.2439 41.5C95.9468 41.5 95.3773 41.8 94.9812 42.15Z" fill="white"/>
<path d="M57.4934 45.9C50.3128 46.225 49.5205 46.35 49.5205 47.125C49.5205 48 50.0652 48.05 57.3696 47.75C67.5461 47.35 67.5213 47.375 67.967 46.5C68.1651 46.1 68.3384 45.725 68.3384 45.625C68.3384 45.45 66.1842 45.5 57.4934 45.9Z" fill="white"/>
<path d="M134.276 46.825C133.261 47.325 132.914 47.75 133.483 47.75C133.607 47.75 137.866 48.25 142.892 48.875C147.943 49.5 152.598 50 153.292 50C154.406 50 154.505 49.95 154.505 49.4C154.505 49.05 154.381 48.7 154.233 48.6C153.96 48.425 136.727 46.25 135.811 46.275C135.539 46.275 134.845 46.525 134.276 46.825Z" fill="white"/>
</g>
<path d="M126.512 61.928C126.488 59.456 124.856 58.064 121.952 58.064C119.024 58.064 117.128 59.576 117.128 61.904C117.128 63.872 118.136 64.808 121.112 65.528L122.984 65.984C124.376 66.32 124.928 66.824 124.928 67.736C124.928 68.912 123.752 69.704 122 69.704C120.92 69.704 120.008 69.392 119.504 68.864C119.192 68.504 119.048 68.144 118.928 67.256H116.816C116.912 70.16 118.544 71.552 121.832 71.552C125 71.552 127.016 69.992 127.016 67.568C127.016 65.696 125.96 64.664 123.464 64.064L121.544 63.608C119.912 63.224 119.216 62.696 119.216 61.808C119.216 60.656 120.248 59.912 121.88 59.912C123.488 59.912 124.352 60.608 124.4 61.928H126.512ZM129.296 76.232H131.312V69.68C132.368 70.976 133.544 71.552 135.176 71.552C138.416 71.552 140.552 68.936 140.552 64.928C140.552 60.704 138.488 58.064 135.152 58.064C133.448 58.064 132.08 58.832 131.144 60.32V58.424H129.296V76.232ZM134.816 59.936C137.024 59.936 138.464 61.88 138.464 64.88C138.464 67.736 137 69.68 134.816 69.68C132.704 69.68 131.312 67.76 131.312 64.808C131.312 61.856 132.704 59.936 134.816 59.936ZM154.176 69.824C153.96 69.872 153.864 69.872 153.744 69.872C153.048 69.872 152.664 69.512 152.664 68.888V61.496C152.664 59.264 151.032 58.064 147.936 58.064C146.112 58.064 144.6 58.592 143.76 59.528C143.184 60.176 142.944 60.896 142.896 62.144H144.912C145.08 60.608 145.992 59.912 147.864 59.912C149.664 59.912 150.672 60.584 150.672 61.784V62.312C150.672 63.152 150.168 63.512 148.584 63.704C145.752 64.064 145.32 64.16 144.552 64.472C143.088 65.072 142.344 66.2 142.344 67.832C142.344 70.112 143.928 71.552 146.472 71.552C148.056 71.552 149.328 71 150.744 69.704C150.888 70.976 151.512 71.552 152.808 71.552C153.216 71.552 153.528 71.504 154.176 71.336V69.824ZM150.672 67.04C150.672 67.712 150.48 68.12 149.88 68.672C149.064 69.416 148.08 69.8 146.904 69.8C145.344 69.8 144.432 69.056 144.432 67.784C144.432 66.464 145.32 65.792 147.456 65.48C149.568 65.192 150 65.096 150.672 64.784V67.04Z" fill="white"/>
<defs>
<clipPath id="clip0">
<rect width="155" height="50" fill="white"/>
</clipPath>
</defs>
</svg>
