<svg width="27" height="26" viewBox="0 0 27 26" fill="none" xmlns="http://www.w3.org/2000/svg">
<g clip-path="url(#clip0)" filter="url(#filter0_d)">
<path d="M13.7086 5.45128C11.2064 5.45128 9.18066 7.4872 9.18066 9.99705C9.18066 12.5091 11.2086 14.5428 13.7086 14.5428C16.2108 14.5428 18.2365 12.5069 18.2365 9.99705C18.2365 7.48499 16.2086 5.45128 13.7086 5.45128ZM13.7086 12.9476C12.0843 12.9476 10.7696 11.627 10.7696 9.99705C10.7696 8.36713 12.0851 7.04651 13.7086 7.04651C15.3321 7.04651 16.6476 8.36713 16.6476 9.99705C16.6483 11.627 15.3329 12.9476 13.7086 12.9476Z" fill="white"/>
<path d="M17.3428 1.19971C15.7193 1.12367 11.6979 1.12737 10.0729 1.19971C8.645 1.26688 7.38544 1.61309 6.37 2.63253C4.67294 4.33627 4.88985 6.63204 4.88985 9.99892C4.88985 13.4448 4.69867 15.6874 6.37 17.3653C8.07367 19.075 10.3935 18.8513 13.7075 18.8513C17.1075 18.8513 18.281 18.8535 19.4832 18.3862C21.1178 17.7492 22.3516 16.2824 22.4722 13.6478C22.5487 12.0171 22.5443 7.98071 22.4722 6.34931C22.3266 3.23932 20.6641 1.35325 17.3428 1.19971ZM19.9126 16.2381C18.8001 17.355 17.2568 17.2553 13.6862 17.2553C10.0097 17.2553 8.53544 17.3099 7.4597 16.227C6.22073 14.9891 6.445 13.0011 6.445 9.98711C6.445 5.90862 6.02809 2.97136 10.1053 2.76172C11.0421 2.7285 11.3178 2.71742 13.6759 2.71742L13.709 2.73957C17.6274 2.73957 20.7016 2.32766 20.8862 6.42018C20.9281 7.35399 20.9376 7.6345 20.9376 9.99818C20.9369 13.6463 21.006 15.1352 19.9126 16.2381Z" fill="white"/>
<path d="M18.4155 6.33415C18.9999 6.33415 19.4736 5.85856 19.4736 5.27189C19.4736 4.68523 18.9999 4.20964 18.4155 4.20964C17.8311 4.20964 17.3574 4.68523 17.3574 5.27189C17.3574 5.85856 17.8311 6.33415 18.4155 6.33415Z" fill="white"/>
</g>
<defs>
<filter id="filter0_d" x="0.881836" y="0.141724" width="25.6471" height="25.7165" filterUnits="userSpaceOnUse" color-interpolation-filters="sRGB">
<feFlood flood-opacity="0" result="BackgroundImageFix"/>
<feColorMatrix in="SourceAlpha" type="matrix" values="0 0 0 0 0 0 0 0 0 0 0 0 0 0 0 0 0 0 127 0"/>
<feOffset dy="3"/>
<feGaussianBlur stdDeviation="2"/>
<feColorMatrix type="matrix" values="0 0 0 0 1 0 0 0 0 1 0 0 0 0 1 0 0 0 0.32 0"/>
<feBlend mode="normal" in2="BackgroundImageFix" result="effect1_dropShadow"/>
<feBlend mode="normal" in="SourceGraphic" in2="effect1_dropShadow" result="shape"/>
</filter>
<clipPath id="clip0">
<rect width="17.6471" height="17.7165" fill="white" transform="translate(4.88184 1.14172)"/>
</clipPath>
</defs>
</svg>
