<svg width="30" height="30" viewBox="0 0 30 30" fill="none" xmlns="http://www.w3.org/2000/svg">
<path d="M15.005 7.29752C10.7512 7.29752 7.3075 10.745 7.3075 14.995C7.3075 19.2488 10.755 22.6925 15.005 22.6925C19.2587 22.6925 22.7025 19.245 22.7025 14.995C22.7025 10.7413 19.255 7.29752 15.005 7.29752ZM15.005 19.9913C12.2437 19.9913 10.0087 17.755 10.0087 14.995C10.0087 12.235 12.245 9.99877 15.005 9.99877C17.765 9.99877 20.0012 12.235 20.0012 14.995C20.0025 17.755 17.7662 19.9913 15.005 19.9913Z" fill="white"/>
<path d="M21.1844 0.0965679C18.4244 -0.0321821 11.5882 -0.0259321 8.82568 0.0965679C6.39818 0.210318 4.25693 0.796568 2.53068 2.52282C-0.35432 5.40782 0.0144296 9.29532 0.0144296 14.9966C0.0144296 20.8316 -0.31057 24.6291 2.53068 27.4703C5.42693 30.3653 9.37068 29.9866 15.0044 29.9866C20.7844 29.9866 22.7794 29.9903 24.8232 29.1991C27.6019 28.1203 29.6994 25.6366 29.9044 21.1753C30.0344 18.4141 30.0269 11.5791 29.9044 8.81657C29.6569 3.55032 26.8307 0.356568 21.1844 0.0965679ZM25.5532 25.5616C23.6619 27.4528 21.0382 27.2841 14.9682 27.2841C8.71818 27.2841 6.21193 27.3766 4.38318 25.5428C2.27693 23.4466 2.65818 20.0803 2.65818 14.9766C2.65818 8.07032 1.94943 3.09657 8.88068 2.74157C10.4732 2.68532 10.9419 2.66657 14.9507 2.66657L15.0069 2.70407C21.6682 2.70407 26.8944 2.00657 27.2082 8.93657C27.2794 10.5178 27.2957 10.9928 27.2957 14.9953C27.2944 21.1728 27.4119 23.6941 25.5532 25.5616Z" fill="white"/>
<path d="M23.0075 8.79249C24.0009 8.79249 24.8062 7.98716 24.8062 6.99374C24.8062 6.00032 24.0009 5.19499 23.0075 5.19499C22.0141 5.19499 21.2087 6.00032 21.2087 6.99374C21.2087 7.98716 22.0141 8.79249 23.0075 8.79249Z" fill="white"/>
</svg>
