<svg width="160" height="100" viewBox="0 0 93 46" fill="none" xmlns="http://www.w3.org/2000/svg">
<g clip-path="url(#clip0)">
<path d="M0 9.02074V18.0716H3.84776C8.4532 18.0716 8.85431 17.9812 10.0428 16.7915C10.6371 16.2042 10.8599 15.8126 11.1125 15.0597C11.9593 12.364 11.4542 10.4062 9.58227 9.06592L8.83946 8.52377L9.52284 7.83103C10.3845 6.95757 10.6965 6.06905 10.6965 4.45766C10.6965 2.48485 9.89425 1.20477 8.18578 0.406612C7.56182 0.105419 7.19042 0.0753002 3.75863 0.0301208L0 -0.030117V9.02074ZM7.78467 2.16859C9.03259 2.90652 9.41885 4.54802 8.6909 6.06905C8.1115 7.319 6.89329 7.71055 3.81805 7.65031L1.76789 7.60513L1.73818 4.62332L1.70847 1.62645L4.38259 1.68668C7.01214 1.73186 7.07157 1.73186 7.78467 2.16859ZM7.30927 9.48759C8.67604 9.87914 9.80511 11.3098 9.80511 12.6501C9.80511 14.4272 8.86917 15.903 7.53211 16.2343C7.14585 16.3397 5.73451 16.415 4.27859 16.415H1.70847V12.876V9.33699H4.23403C5.63051 9.33699 7.01214 9.41229 7.30927 9.48759Z" fill="#FDFFFF"/>
<path d="M50.5107 9.02074V18.0716H54.3436C57.2555 18.0716 58.3548 18.0264 58.8896 17.8608C60.8061 17.2734 61.8609 15.7373 62.054 13.2374C62.1134 12.379 62.0837 11.9122 61.8906 11.3249C61.5935 10.4514 60.613 9.24663 59.8404 8.82496L59.3205 8.53883L59.9593 7.9515C60.9547 7.0178 61.2666 6.21964 61.2815 4.5179C61.2815 3.32819 61.2221 2.98182 60.9547 2.46979C60.4941 1.58127 59.781 0.918642 58.8302 0.466852C58.028 0.0903606 57.9388 0.0753021 54.2694 0.0301228L50.5107 -0.0150566V9.02074ZM57.7309 1.88246C58.9639 2.24389 59.6027 3.14747 59.6027 4.50284C59.6027 5.90339 59.1719 6.65637 58.0131 7.27382C57.4932 7.55995 57.1218 7.60513 54.8636 7.65031L52.2935 7.71055V4.68356V1.65656H54.6408C56.2898 1.65656 57.2109 1.7168 57.7309 1.88246ZM57.9537 9.51771C59.469 10.0297 60.3158 11.1592 60.3158 12.6501C60.3158 13.8398 60.093 14.5928 59.5433 15.2856C58.7411 16.2644 58.4885 16.3247 55.235 16.3849L52.2935 16.4452V12.8911V9.33699H54.8785C56.4384 9.33699 57.6417 9.41229 57.9537 9.51771Z" fill="#FDFFFF"/>
<path d="M18.3476 5.93351C17.9465 6.03893 17.4117 6.21965 17.1591 6.31001C16.5946 6.5359 15.3021 7.40936 15.3021 7.57502C15.3021 7.65032 15.5249 7.93645 15.8072 8.23764L16.3123 8.77979L16.7283 8.37318C17.4414 7.71055 18.6299 7.33406 20.0561 7.319C21.0663 7.30394 21.4229 7.36418 21.8388 7.60514C22.5519 8.04187 22.8936 8.71955 22.9976 9.86409L23.0719 10.843H21.2297C19.1499 10.843 17.7682 11.099 16.6689 11.6562C13.8016 13.132 14.1136 17.2584 17.1591 18.1469C17.798 18.3427 18.3476 18.3879 19.2093 18.3276C20.7395 18.2222 21.7943 17.7102 22.5965 16.6861L23.1759 15.9331V16.4452C23.1759 16.7162 23.2205 17.1981 23.265 17.4993C23.369 18.0716 23.369 18.0716 24.097 18.0716H24.8398L24.7507 17.4993C24.7061 17.1981 24.6318 15.15 24.5873 12.9513C24.4833 8.56895 24.3941 8.07199 23.577 7.12323C22.8342 6.26483 21.824 5.84316 20.3532 5.78292C19.5956 5.7528 18.7933 5.81304 18.3476 5.93351ZM22.9828 13.0718C22.7896 15.2705 21.1109 16.7614 18.7933 16.7765C18.0059 16.7915 17.6345 16.7162 17.3226 16.5205C16.7729 16.144 16.446 15.3157 16.5352 14.4874C16.7134 12.8308 17.9762 12.2586 21.5269 12.2134L23.0719 12.1983L22.9828 13.0718Z" fill="#FDFFFF"/>
<path d="M32.6834 5.85821C31.9555 6.08411 31.2721 6.52084 30.6481 7.12322L30.0093 7.74067V6.88227V6.02387H29.1179H28.2266V12.0477V18.0716H29.1031H29.9796L30.039 14.2615C30.0836 10.6773 30.0984 10.4213 30.4253 9.71348C31.2869 7.80091 33.2331 6.91239 34.7484 7.71055C36.1004 8.41835 36.2489 9.05086 36.2489 14.3368V18.0716H37.0512H37.8385L37.9277 14.638C38.0168 10.7978 38.1505 9.93938 38.8191 8.93038C39.9778 7.18346 42.5925 6.92745 43.7068 8.44847C44.1376 9.02074 44.2713 10.4062 44.2713 14.4121V18.0716H45.1775H46.0986L46.0095 13.7344C45.9203 9.00568 45.8312 8.38823 45.029 7.25876C44.7764 6.92745 44.2564 6.4606 43.8702 6.21964C43.2314 5.84315 43.0085 5.79797 41.8943 5.79797C40.8246 5.79797 40.5275 5.85821 39.8887 6.20458C39.131 6.61119 37.7345 7.96656 37.7345 8.31294C37.7197 8.41835 37.5563 8.19246 37.3631 7.80091C36.9175 6.95757 36.1301 6.26482 35.2238 5.94857C34.5256 5.70762 33.3074 5.66244 32.6834 5.85821Z" fill="#FDFFFF"/>
<path d="M69.8091 5.93351C68.279 6.35518 66.5853 7.86114 65.8425 9.44241C65.4711 10.2406 65.4414 10.4815 65.4414 12.123C65.4414 13.8097 65.4711 13.9904 65.8722 14.7735C66.5556 16.159 67.4619 17.0777 68.7544 17.7252C69.8537 18.2824 69.928 18.2975 71.5176 18.2975C73.0032 18.2975 73.2558 18.2523 74.0283 17.8909C75.1128 17.3788 75.7814 16.8216 76.5242 15.8126C77.8167 14.0808 78.0692 11.4453 77.1481 9.44241C76.6133 8.31293 75.5585 7.07804 74.6226 6.52083C73.3449 5.76785 71.3245 5.51184 69.8091 5.93351ZM73.4638 7.90632C75.2614 8.79484 76.2122 10.7677 75.8854 12.9061C75.6179 14.6079 74.6523 15.8428 73.1221 16.415C71.7107 16.9572 70.24 16.7765 68.9772 15.9181C67.239 14.7283 66.5705 12.1983 67.447 10.1502C67.967 8.93038 69.2149 7.86114 70.4925 7.51477C71.2799 7.30394 72.617 7.46959 73.4638 7.90632Z" fill="#FDFFFF"/>
<path d="M85.0813 5.88833C82.8529 6.41542 80.9513 8.55389 80.5056 11.0387C79.941 14.126 81.8872 17.2734 84.8882 18.1469C86.2549 18.5535 88.1268 18.4029 89.345 17.7855C90.5335 17.1981 91.6775 15.9783 92.3014 14.6531C92.7471 13.7043 92.7768 13.5085 92.762 12.123C92.762 10.3761 92.4648 9.42735 91.5438 8.20752C90.0433 6.20458 87.5326 5.301 85.0813 5.88833ZM88.4388 7.80091C89.4045 8.23764 90.385 9.30687 90.7712 10.361C91.41 12.0628 91.0089 14.1561 89.7759 15.4362C88.9291 16.3247 88.0971 16.6409 86.6115 16.6409C85.527 16.6409 85.2447 16.5807 84.591 16.2343C83.7145 15.7675 82.9866 14.9693 82.5409 14.0205C82.0952 13.0115 82.1101 11.2044 82.5855 10.1201C83.0311 9.1111 84.2939 7.92138 85.2447 7.60513C86.1509 7.319 87.5474 7.3943 88.4388 7.80091Z" fill="#FDFFFF"/>
<path d="M22.5963 20.8275C22.3288 21.0986 22.4031 21.5353 22.7745 21.6859C23.1162 21.8214 26.7857 22.2883 27.5731 22.2883C27.8999 22.2883 28.0782 22.1829 28.2713 21.8516L28.5387 21.3998L28.0485 21.3245C27.7811 21.2793 26.652 21.1438 25.5526 21.0082C24.4533 20.8878 23.3688 20.7522 23.1608 20.707C22.9528 20.6769 22.7003 20.7221 22.5963 20.8275Z" fill="#FDFFFF"/>
<path d="M28.9103 21.9118C28.7766 22.1076 28.6726 22.3335 28.6726 22.4088C28.6726 22.4841 29.252 22.6046 29.98 22.6648C32.357 22.8606 32.6392 22.9961 30.5148 22.9208L28.4201 22.8455L28.1081 23.3124C27.9298 23.5533 27.7812 23.8394 27.7812 23.9298C27.7812 24.0503 29.9354 24.0955 35.2242 24.0955H42.6672L43.2466 23.6286C43.5586 23.3726 43.826 23.1015 43.826 23.0262C43.826 22.9509 43.1723 22.8907 42.3552 22.8907C41.553 22.8907 38.4183 22.5895 35.3431 22.213C32.2827 21.8365 29.6383 21.5353 29.4749 21.5353C29.2966 21.5353 29.044 21.701 28.9103 21.9118Z" fill="#FDFFFF"/>
<path d="M0.252926 23.0563C-0.0441984 23.2371 -0.0739109 23.6587 0.178645 23.9147C0.312351 24.0503 2.03567 24.0955 6.99766 24.0955H13.6532L13.9504 23.6587C14.1286 23.4178 14.2624 23.1467 14.2624 23.0563C14.2624 22.8304 0.639188 22.8304 0.252926 23.0563Z" fill="#FDFFFF"/>
<path d="M14.8557 23.3726C14.6923 23.6437 14.5586 23.9147 14.5586 23.975C14.5586 24.0503 17.3219 24.0955 20.7091 24.0955H26.8744L27.1715 23.6587C27.3498 23.4178 27.4835 23.1467 27.4835 23.0563C27.4835 22.9359 25.6859 22.8907 21.3182 22.8907H15.1528L14.8557 23.3726Z" fill="#FDFFFF"/>
<path d="M44.1671 23.5081C43.8106 23.8394 43.5283 24.1557 43.5283 24.2159C43.5283 24.2762 43.7066 24.3515 43.9443 24.3665C44.3751 24.3966 44.6574 24.4268 51.1644 25.2249L55.4579 25.752L56.0373 25.3605C56.3492 25.1346 56.6018 24.9087 56.6018 24.8484C56.6018 24.8033 55.4133 24.6225 53.9722 24.4569L51.3278 24.1707L57.5972 24.1256L63.8665 24.0955L64.1636 23.6587C64.3419 23.4178 64.4756 23.1467 64.4756 23.0563C64.4756 22.9359 61.6678 22.8907 54.6408 22.8907L44.7911 22.9057L44.1671 23.5081Z" fill="#FDFFFF"/>
<path d="M65.0854 23.3274C64.9071 23.5684 64.7734 23.8394 64.7734 23.9298C64.7734 24.0503 66.6602 24.0955 71.2805 24.0955H77.7875L78.4115 23.6135C78.7532 23.3425 79.0354 23.0714 79.0354 23.0112C79.0354 22.9509 75.9602 22.8907 72.2164 22.8907H65.3825L65.0854 23.3274Z" fill="#FDFFFF"/>
<path d="M79.5997 23.3124C79.2877 23.5383 79.0352 23.8093 79.0352 23.8997C79.0352 24.0503 80.4762 24.0955 85.7799 24.0955C89.4939 24.0955 92.6286 24.0503 92.7623 24.0051C93.0743 23.8846 93.0743 23.1015 92.7623 22.981C92.6286 22.9359 89.7465 22.8907 86.3444 22.8907L80.1494 22.9057L79.5997 23.3124Z" fill="#FDFFFF"/>
<path d="M56.9889 25.3906C56.766 25.6014 56.6026 25.8123 56.6621 25.8574C56.7066 25.9026 57.7317 26.0532 58.9351 26.1888L61.1338 26.4448L59.9453 26.5502C59.2916 26.6104 54.9833 26.7911 50.363 26.9719L41.9692 27.2881L41.6424 27.6947C41.0184 28.4326 41.1373 28.5079 42.8309 28.4025C43.6629 28.3423 48.4317 28.1314 53.4085 27.9206C58.4002 27.7248 63.7485 27.4989 65.2935 27.4236C68.0716 27.3032 68.1905 27.3182 73.3902 27.9507L78.6641 28.6134L79.4366 28.267C80.1349 27.9658 80.432 27.7248 80.12 27.6947C80.0457 27.6947 78.7978 27.5441 77.3271 27.3483L74.6529 27.017L77.1785 26.9116C86.7756 26.5502 91.5445 26.3394 92.2279 26.2641C92.9558 26.1888 93.0004 26.1586 93.0004 25.752C93.0004 25.5111 92.9409 25.2852 92.8667 25.24C92.8072 25.1948 91.3068 25.2249 89.5686 25.3002C87.8156 25.3755 82.2742 25.6165 77.2528 25.8273L68.1162 26.2189L63.0948 25.6165C60.3315 25.2701 57.9248 24.999 57.7466 24.999C57.5683 24.999 57.2266 25.1798 56.9889 25.3906Z" fill="#FDFFFF"/>
<path d="M34.4966 27.6495C30.1883 27.8453 29.7129 27.9206 29.7129 28.3875C29.7129 28.9146 30.0397 28.9447 34.4223 28.764C40.5282 28.523 40.5134 28.5381 40.7808 28.011C40.8996 27.77 41.0036 27.5441 41.0036 27.4839C41.0036 27.3785 39.7111 27.4086 34.4966 27.6495Z" fill="#FDFFFF"/>
<path d="M80.5653 28.2067C79.9561 28.5079 79.7482 28.764 80.0899 28.764C80.1641 28.764 82.7194 29.0651 85.7352 29.4416C88.7659 29.8181 91.5589 30.1193 91.9748 30.1193C92.6434 30.1193 92.7028 30.0892 92.7028 29.7579C92.7028 29.5471 92.6285 29.3362 92.5394 29.276C92.376 29.1706 82.036 27.8604 81.4863 27.8754C81.3229 27.8754 80.9069 28.026 80.5653 28.2067Z" fill="#FDFFFF"/>
</g>
<path d="M77.1193 35.5833C77.1073 34.3473 76.2913 33.6513 74.8393 33.6513C73.3753 33.6513 72.4273 34.4073 72.4273 35.5713C72.4273 36.5553 72.9313 37.0233 74.4193 37.3833L75.3553 37.6113C76.0513 37.7793 76.3273 38.0313 76.3273 38.4873C76.3273 39.0753 75.7393 39.4713 74.8633 39.4713C74.3233 39.4713 73.8673 39.3153 73.6153 39.0513C73.4593 38.8713 73.3873 38.6913 73.3273 38.2473H72.2713C72.3193 39.6993 73.1353 40.3953 74.7793 40.3953C76.3633 40.3953 77.3713 39.6153 77.3713 38.4033C77.3713 37.4673 76.8433 36.9513 75.5953 36.6513L74.6353 36.4233C73.8193 36.2313 73.4713 35.9673 73.4713 35.5233C73.4713 34.9473 73.9873 34.5753 74.8033 34.5753C75.6073 34.5753 76.0393 34.9233 76.0633 35.5833H77.1193ZM78.5113 42.7353H79.5193V39.4593C80.0473 40.1073 80.6353 40.3953 81.4513 40.3953C83.0713 40.3953 84.1393 39.0873 84.1393 37.0833C84.1393 34.9713 83.1073 33.6513 81.4393 33.6513C80.5873 33.6513 79.9033 34.0353 79.4353 34.7793V33.8313H78.5113V42.7353ZM81.2713 34.5873C82.3753 34.5873 83.0953 35.5593 83.0953 37.0593C83.0953 38.4873 82.3633 39.4593 81.2713 39.4593C80.2153 39.4593 79.5193 38.4993 79.5193 37.0233C79.5193 35.5473 80.2153 34.5873 81.2713 34.5873ZM90.9513 39.5313C90.8433 39.5553 90.7953 39.5553 90.7353 39.5553C90.3873 39.5553 90.1953 39.3753 90.1953 39.0633V35.3673C90.1953 34.2513 89.3793 33.6513 87.8313 33.6513C86.9193 33.6513 86.1633 33.9153 85.7433 34.3833C85.4553 34.7073 85.3353 35.0673 85.3113 35.6913H86.3193C86.4033 34.9233 86.8593 34.5753 87.7953 34.5753C88.6953 34.5753 89.1993 34.9113 89.1993 35.5113V35.7753C89.1993 36.1953 88.9473 36.3753 88.1553 36.4713C86.7393 36.6513 86.5233 36.6993 86.1393 36.8553C85.4073 37.1553 85.0353 37.7193 85.0353 38.5353C85.0353 39.6753 85.8273 40.3953 87.0993 40.3953C87.8913 40.3953 88.5273 40.1193 89.2353 39.4713C89.3073 40.1073 89.6193 40.3953 90.2673 40.3953C90.4713 40.3953 90.6273 40.3713 90.9513 40.2873V39.5313ZM89.1993 38.1393C89.1993 38.4753 89.1033 38.6793 88.8033 38.9553C88.3953 39.3273 87.9033 39.5193 87.3153 39.5193C86.5353 39.5193 86.0793 39.1473 86.0793 38.5113C86.0793 37.8513 86.5233 37.5153 87.5913 37.3593C88.6473 37.2153 88.8633 37.1673 89.1993 37.0113V38.1393Z" fill="white"/>
<defs>
<clipPath id="clip0">
<rect width="93" height="30.1193" fill="white"/>
</clipPath>
</defs>
</svg>
