<svg width="230" height="119" viewBox="0 0 230 119" fill="none" xmlns="http://www.w3.org/2000/svg">
<g clip-path="url(#clip0)" filter="url(#filter0_d)">
<path d="M13 28.7672V48.6002H21.4403C31.5425 48.6002 32.4224 48.4022 35.0294 45.7952C36.3329 44.5082 36.8217 43.6502 37.3757 42.0002C39.2332 36.0932 38.1252 31.8032 34.0192 28.8662L32.3898 27.6782L33.8888 26.1602C35.7789 24.2462 36.4633 22.2992 36.4633 18.7682C36.4633 14.4452 34.7035 11.6402 30.9559 9.8912C29.5872 9.2312 28.7725 9.1652 21.2447 9.0662L13 8.9342V28.7672ZM30.076 13.7522C32.8134 15.3692 33.6607 18.9662 32.0639 22.2992C30.793 25.0382 28.1208 25.8962 21.3751 25.7642L16.878 25.6652L16.8128 19.1312L16.7476 12.5642L22.6134 12.6962C28.3815 12.7952 28.5118 12.7952 30.076 13.7522ZM29.0332 29.7902C32.0313 30.6482 34.508 33.7832 34.508 36.7202C34.508 40.6142 32.455 43.8482 29.522 44.5742C28.6748 44.8052 25.5789 44.9702 22.3853 44.9702H16.7476V37.2152V29.4602H22.2875C25.3508 29.4602 28.3815 29.6252 29.0332 29.7902Z" fill="white"/>
<path d="M123.799 28.7672V48.6002H132.206C138.593 48.6002 141.005 48.5012 142.178 48.1382C146.382 46.8512 148.696 43.4852 149.119 38.0072C149.25 36.1262 149.184 35.1032 148.761 33.8162C148.109 31.9022 145.958 29.2622 144.264 28.3382L143.123 27.7112L144.524 26.4242C146.708 24.3782 147.392 22.6292 147.425 18.9002C147.425 16.2932 147.294 15.5342 146.708 14.4122C145.698 12.4652 144.133 11.0132 142.048 10.0232C140.288 9.19819 140.092 9.16519 132.043 9.06619L123.799 8.96719V28.7672ZM139.636 13.1252C142.341 13.9172 143.742 15.8972 143.742 18.8672C143.742 21.9362 142.797 23.5862 140.255 24.9392C139.115 25.5662 138.3 25.6652 133.347 25.7642L127.709 25.8962V19.2632V12.6302H132.858C136.475 12.6302 138.496 12.7622 139.636 13.1252ZM140.125 29.8562C143.449 30.9782 145.307 33.4532 145.307 36.7202C145.307 39.3272 144.818 40.9772 143.612 42.4952C141.852 44.6402 141.298 44.7722 134.162 44.9042L127.709 45.0362V37.2482V29.4602H133.379C136.801 29.4602 139.441 29.6252 140.125 29.8562Z" fill="white"/>
<path d="M53.2459 22.0021C52.366 22.2331 51.1929 22.6291 50.6389 22.8271C49.4005 23.3221 46.5654 25.2361 46.5654 25.5991C46.5654 25.7641 47.0542 26.3911 47.6734 27.0511L48.7814 28.2391L49.6938 27.3481C51.258 25.8961 53.8651 25.0711 56.9935 25.0381C59.2095 25.0051 59.9916 25.1371 60.9041 25.6651C62.4683 26.6221 63.2178 28.1071 63.4459 30.6151L63.6089 32.7601H59.568C55.0056 32.7601 51.975 33.3211 49.5635 34.5421C43.274 37.7761 43.9584 46.8181 50.6389 48.7651C52.0402 49.1941 53.2459 49.2931 55.136 49.1611C58.4926 48.9301 60.8063 47.8081 62.566 45.5641L63.837 43.9141V45.0361C63.837 45.6301 63.9347 46.6861 64.0325 47.3461C64.2606 48.6001 64.2606 48.6001 65.8574 48.6001H67.4868L67.2913 47.3461C67.1935 46.6861 67.0306 42.1981 66.9328 37.3801C66.7047 27.7771 66.5092 26.6881 64.7168 24.6091C63.0874 22.7281 60.8715 21.8041 57.6453 21.6721C55.9833 21.6061 54.2235 21.7381 53.2459 22.0021ZM63.4133 37.6441C62.9897 42.4621 59.3073 45.7291 54.2235 45.7621C52.4964 45.7951 51.6817 45.6301 50.9973 45.2011C49.7916 44.3761 49.0747 42.5611 49.2702 40.7461C49.6612 37.1161 52.4312 35.8621 60.2197 35.7631L63.6089 35.7301L63.4133 37.6441Z" fill="white"/>
<path d="M84.6933 21.8372C83.0965 22.3322 81.5975 23.2892 80.2288 24.6092L78.8275 25.9622V24.0812V22.2002H76.8723H74.917V35.4002V48.6002H76.8397H78.7624L78.8927 40.2512C78.9905 32.3972 79.0231 31.8362 79.74 30.2852C81.6301 26.0942 85.8991 24.1472 89.2231 25.8962C92.1886 27.4472 92.5144 28.8332 92.5144 40.4162V48.6002H94.2742H96.0013L96.1969 41.0762C96.3924 32.6612 96.6857 30.7802 98.1521 28.5692C100.694 24.7412 106.429 24.1802 108.874 27.5132C109.819 28.7672 110.112 31.8032 110.112 40.5812V48.6002H112.1H114.12L113.925 39.0962C113.729 28.7342 113.534 27.3812 111.774 24.9062C111.22 24.1802 110.079 23.1572 109.232 22.6292C107.831 21.8042 107.342 21.7052 104.898 21.7052C102.551 21.7052 101.9 21.8372 100.498 22.5962C98.8365 23.4872 95.7732 26.4572 95.7732 27.2162C95.7406 27.4472 95.3822 26.9522 94.9585 26.0942C93.9809 24.2462 92.2537 22.7282 90.2659 22.0352C88.7342 21.5072 86.062 21.4082 84.6933 21.8372Z" fill="white"/>
<path d="M166.13 22.0022C162.774 22.9262 159.059 26.2262 157.429 29.6912C156.615 31.4402 156.55 31.9682 156.55 35.5652C156.55 39.2612 156.615 39.6572 157.495 41.3732C158.994 44.4092 160.982 46.4222 163.817 47.8412C166.228 49.0622 166.391 49.0952 169.878 49.0952C173.137 49.0952 173.691 48.9962 175.385 48.2042C177.764 47.0822 179.231 45.8612 180.86 43.6502C183.695 39.8552 184.249 34.0802 182.229 29.6912C181.056 27.2162 178.742 24.5102 176.689 23.2892C173.886 21.6392 169.454 21.0782 166.13 22.0022ZM174.147 26.3252C178.09 28.2722 180.176 32.5952 179.459 37.2812C178.872 41.0102 176.754 43.7162 173.397 44.9702C170.302 46.1582 167.075 45.7622 164.305 43.8812C160.493 41.2742 159.026 35.7302 160.949 31.2422C162.089 28.5692 164.827 26.2262 167.629 25.4672C169.357 25.0052 172.29 25.3682 174.147 26.3252Z" fill="white"/>
<path d="M199.631 21.903C194.742 23.058 190.571 27.744 189.593 33.189C188.355 39.954 192.624 46.851 199.207 48.765C202.205 49.656 206.311 49.326 208.983 47.973C211.59 46.686 214.1 44.013 215.468 41.109C216.446 39.03 216.511 38.601 216.478 35.565C216.478 31.737 215.827 29.658 213.806 26.985C210.515 22.596 205.008 20.616 199.631 21.903ZM206.995 26.094C209.114 27.051 211.264 29.394 212.112 31.704C213.513 35.433 212.633 40.02 209.928 42.825C208.071 44.772 206.246 45.465 202.987 45.465C200.608 45.465 199.989 45.333 198.555 44.574C196.632 43.551 195.036 41.802 194.058 39.723C193.08 37.512 193.113 33.552 194.156 31.176C195.133 28.965 197.903 26.358 199.989 25.665C201.977 25.038 205.04 25.203 206.995 26.094Z" fill="white"/>
<path d="M62.5662 54.6388C61.9796 55.2328 62.1426 56.1898 62.9573 56.5198C63.7068 56.8168 71.756 57.8398 73.4831 57.8398C74.2001 57.8398 74.5911 57.6088 75.0148 56.8828L75.6013 55.8928L74.5259 55.7278C73.9394 55.6288 71.4627 55.3318 69.0512 55.0348C66.6397 54.7708 64.2608 54.4738 63.8045 54.3748C63.3483 54.3088 62.7943 54.4078 62.5662 54.6388Z" fill="white"/>
<path d="M76.4159 57.0151C76.1226 57.4441 75.8945 57.9391 75.8945 58.1041C75.8945 58.2691 77.1654 58.5331 78.7622 58.6651C83.9763 59.0941 84.5954 59.3911 79.9354 59.2261L75.3405 59.0611L74.6561 60.0841C74.2651 60.6121 73.9392 61.2391 73.9392 61.4371C73.9392 61.7011 78.6644 61.8001 90.2657 61.8001H106.592L107.863 60.7771C108.548 60.2161 109.134 59.6221 109.134 59.4571C109.134 59.2921 107.7 59.1601 105.908 59.1601C104.148 59.1601 97.2721 58.5001 90.5264 57.6751C83.8133 56.8501 78.0127 56.1901 77.6542 56.1901C77.2632 56.1901 76.7092 56.5531 76.4159 57.0151Z" fill="white"/>
<path d="M13.5538 59.5231C12.902 59.9191 12.8368 60.8431 13.3908 61.4041C13.6841 61.7011 17.4643 61.8001 28.3487 61.8001H42.948L43.5998 60.8431C43.9908 60.3151 44.2841 59.7211 44.2841 59.5231C44.2841 59.0281 14.4011 59.0281 13.5538 59.5231Z" fill="white"/>
<path d="M45.5875 60.2161C45.2291 60.8101 44.9358 61.4041 44.9358 61.5361C44.9358 61.7011 50.9971 61.8001 58.4272 61.8001H71.9511L72.6029 60.8431C72.9939 60.3151 73.2872 59.7211 73.2872 59.5231C73.2872 59.2591 69.3441 59.1601 59.7633 59.1601H46.2393L45.5875 60.2161Z" fill="white"/>
<path d="M109.883 60.5131C109.101 61.2391 108.482 61.9321 108.482 62.0641C108.482 62.1961 108.873 62.3611 109.395 62.3941C110.34 62.4601 110.959 62.5261 125.232 64.2751L134.65 65.4301L135.921 64.5721C136.605 64.0771 137.159 63.5821 137.159 63.4501C137.159 63.3511 134.552 62.9551 131.391 62.5921L125.591 61.9651L139.343 61.8661L153.095 61.8001L153.747 60.8431C154.138 60.3151 154.431 59.7211 154.431 59.5231C154.431 59.2591 148.272 59.1601 132.858 59.1601L111.252 59.1931L109.883 60.5131Z" fill="white"/>
<path d="M155.767 60.1171C155.376 60.6451 155.083 61.2391 155.083 61.4371C155.083 61.7011 159.222 61.8001 169.356 61.8001H183.63L184.999 60.7441C185.748 60.1501 186.367 59.5561 186.367 59.4241C186.367 59.2921 179.622 59.1601 171.41 59.1601H156.419L155.767 60.1171Z" fill="white"/>
<path d="M187.606 60.0841C186.921 60.5791 186.367 61.1731 186.367 61.3711C186.367 61.7011 189.528 61.8001 201.162 61.8001C209.309 61.8001 216.185 61.7011 216.479 61.6021C217.163 61.3381 217.163 59.6221 216.479 59.3581C216.185 59.2591 209.863 59.1601 202.401 59.1601L188.812 59.1931L187.606 60.0841Z" fill="white"/>
<path d="M138.007 64.6379C137.518 65.0999 137.16 65.5619 137.29 65.6609C137.388 65.7599 139.636 66.0899 142.276 66.3869L147.099 66.9479L144.492 67.1789C143.058 67.3109 133.608 67.7069 123.473 68.1029L105.061 68.7959L104.344 69.6869C102.975 71.3039 103.236 71.4689 106.951 71.2379C108.776 71.1059 119.236 70.6439 130.153 70.1819C141.103 69.7529 152.835 69.2579 156.224 69.0929C162.318 68.8289 162.578 68.8619 173.984 70.2479L185.553 71.6999L187.247 70.9409C188.779 70.2809 189.431 69.7529 188.746 69.6869C188.583 69.6869 185.846 69.3569 182.62 68.9279L176.754 68.2019L182.294 67.9709C203.346 67.1789 213.806 66.7169 215.305 66.5519C216.902 66.3869 217 66.3209 217 65.4299C217 64.9019 216.87 64.4069 216.707 64.3079C216.576 64.2089 213.285 64.2749 209.472 64.4399C205.627 64.6049 193.472 65.1329 182.457 65.5949L162.415 66.4529L151.401 65.1329C145.339 64.3739 140.06 63.7799 139.669 63.7799C139.278 63.7799 138.528 64.1759 138.007 64.6379Z" fill="white"/>
<path d="M88.6691 69.588C79.2186 70.017 78.1758 70.182 78.1758 71.205C78.1758 72.36 78.8927 72.426 88.5061 72.03C101.9 71.502 101.867 71.535 102.454 70.38C102.714 69.852 102.943 69.357 102.943 69.225C102.943 68.994 100.107 69.06 88.6691 69.588Z" fill="white"/>
<path d="M189.724 70.809C188.388 71.469 187.931 72.03 188.681 72.03C188.844 72.03 194.449 72.69 201.064 73.515C207.712 74.34 213.839 75 214.751 75C216.218 75 216.348 74.934 216.348 74.208C216.348 73.746 216.185 73.284 215.99 73.152C215.631 72.921 192.95 70.05 191.744 70.083C191.386 70.083 190.473 70.413 189.724 70.809Z" fill="white"/>
</g>
<g filter="url(#filter1_d)">
<path d="M188.512 86.928C188.488 84.456 186.856 83.064 183.952 83.064C181.024 83.064 179.128 84.576 179.128 86.904C179.128 88.872 180.136 89.808 183.112 90.528L184.984 90.984C186.376 91.32 186.928 91.824 186.928 92.736C186.928 93.912 185.752 94.704 184 94.704C182.92 94.704 182.008 94.392 181.504 93.864C181.192 93.504 181.048 93.144 180.928 92.256H178.816C178.912 95.16 180.544 96.552 183.832 96.552C187 96.552 189.016 94.992 189.016 92.568C189.016 90.696 187.96 89.664 185.464 89.064L183.544 88.608C181.912 88.224 181.216 87.696 181.216 86.808C181.216 85.656 182.248 84.912 183.88 84.912C185.488 84.912 186.352 85.608 186.4 86.928H188.512ZM191.296 101.232H193.312V94.68C194.368 95.976 195.544 96.552 197.176 96.552C200.416 96.552 202.552 93.936 202.552 89.928C202.552 85.704 200.488 83.064 197.152 83.064C195.448 83.064 194.08 83.832 193.144 85.32V83.424H191.296V101.232ZM196.816 84.936C199.024 84.936 200.464 86.88 200.464 89.88C200.464 92.736 199 94.68 196.816 94.68C194.704 94.68 193.312 92.76 193.312 89.808C193.312 86.856 194.704 84.936 196.816 84.936ZM216.176 94.824C215.96 94.872 215.864 94.872 215.744 94.872C215.048 94.872 214.664 94.512 214.664 93.888V86.496C214.664 84.264 213.032 83.064 209.936 83.064C208.112 83.064 206.6 83.592 205.76 84.528C205.184 85.176 204.944 85.896 204.896 87.144H206.912C207.08 85.608 207.992 84.912 209.864 84.912C211.664 84.912 212.672 85.584 212.672 86.784V87.312C212.672 88.152 212.168 88.512 210.584 88.704C207.752 89.064 207.32 89.16 206.552 89.472C205.088 90.072 204.344 91.2 204.344 92.832C204.344 95.112 205.928 96.552 208.472 96.552C210.056 96.552 211.328 96 212.744 94.704C212.888 95.976 213.512 96.552 214.808 96.552C215.216 96.552 215.528 96.504 216.176 96.336V94.824ZM212.672 92.04C212.672 92.712 212.48 93.12 211.88 93.672C211.064 94.416 210.08 94.8 208.904 94.8C207.344 94.8 206.432 94.056 206.432 92.784C206.432 91.464 207.32 90.792 209.456 90.48C211.568 90.192 212 90.096 212.672 89.784V92.04Z" fill="white"/>
</g>
<defs>
<filter id="filter0_d" x="0" y="0" width="230" height="92" filterUnits="userSpaceOnUse" color-interpolation-filters="sRGB">
<feFlood flood-opacity="0" result="BackgroundImageFix"/>
<feColorMatrix in="SourceAlpha" type="matrix" values="0 0 0 0 0 0 0 0 0 0 0 0 0 0 0 0 0 0 127 0"/>
<feOffset dy="4"/>
<feGaussianBlur stdDeviation="6.5"/>
<feColorMatrix type="matrix" values="0 0 0 0 1 0 0 0 0 1 0 0 0 0 1 0 0 0 0.44 0"/>
<feBlend mode="normal" in2="BackgroundImageFix" result="effect1_dropShadow"/>
<feBlend mode="normal" in="SourceGraphic" in2="effect1_dropShadow" result="shape"/>
</filter>
<filter id="filter1_d" x="165.816" y="74.064" width="63.3599" height="44.168" filterUnits="userSpaceOnUse" color-interpolation-filters="sRGB">
<feFlood flood-opacity="0" result="BackgroundImageFix"/>
<feColorMatrix in="SourceAlpha" type="matrix" values="0 0 0 0 0 0 0 0 0 0 0 0 0 0 0 0 0 0 127 0"/>
<feOffset dy="4"/>
<feGaussianBlur stdDeviation="6.5"/>
<feColorMatrix type="matrix" values="0 0 0 0 1 0 0 0 0 1 0 0 0 0 1 0 0 0 0.44 0"/>
<feBlend mode="normal" in2="BackgroundImageFix" result="effect1_dropShadow"/>
<feBlend mode="normal" in="SourceGraphic" in2="effect1_dropShadow" result="shape"/>
</filter>
<clipPath id="clip0">
<rect width="204" height="66" fill="white" transform="translate(13 9)"/>
</clipPath>
</defs>
</svg>
