<svg width="167" height="95" viewBox="0 0 167 95" fill="none" xmlns="http://www.w3.org/2000/svg">
<g clip-path="url(#clip0)" filter="url(#filter0_d)">
<path d="M13 22.7771V36.6001H18.8337C25.8161 36.6001 26.4243 36.4621 28.2262 34.6451C29.1272 33.7481 29.465 33.1501 29.8479 32.0001C31.1318 27.8831 30.366 24.8931 27.528 22.8461L26.4018 22.0181L27.4379 20.9601C28.7443 19.6261 29.2173 18.2691 29.2173 15.8081C29.2173 12.7951 28.001 10.8401 25.4107 9.62113C24.4647 9.16113 23.9016 9.11514 18.6986 9.04613L13 8.95413V22.7771ZM24.8026 12.3121C26.6946 13.4391 27.2802 15.9461 26.1765 18.2691C25.2981 20.1781 23.4511 20.7761 18.7887 20.6841L15.6804 20.6151L15.6353 16.0611L15.5903 11.4841L19.6446 11.5761C23.6313 11.6451 23.7214 11.6451 24.8026 12.3121ZM24.0818 23.4901C26.154 24.0881 27.8658 26.2731 27.8658 28.3201C27.8658 31.0341 26.4468 33.2881 24.4197 33.7941C23.834 33.9551 21.6943 34.0701 19.4869 34.0701H15.5903V28.6651V23.2601H19.4193C21.5366 23.2601 23.6313 23.3751 24.0818 23.4901Z" fill="white"/>
<path d="M89.5811 22.7771V36.6001H95.3922C99.8069 36.6001 101.474 36.5311 102.285 36.2781C105.19 35.3811 106.789 33.0351 107.082 29.2171C107.172 27.9061 107.127 27.1931 106.834 26.2961C106.384 24.9621 104.897 23.1221 103.726 22.4781L102.938 22.0411L103.906 21.1441C105.415 19.7181 105.888 18.4991 105.911 15.9001C105.911 14.0831 105.821 13.5541 105.415 12.7721C104.717 11.4151 103.636 10.4031 102.194 9.71313C100.978 9.13813 100.843 9.11513 95.2796 9.04613L89.5811 8.97713V22.7771ZM100.528 11.8751C102.397 12.4271 103.366 13.8071 103.366 15.8771C103.366 18.0161 102.713 19.1661 100.956 20.1091C100.167 20.5461 99.6042 20.6151 96.1806 20.6841L92.2839 20.7761V16.1531V11.5301H95.8427C98.3429 11.5301 99.7394 11.6221 100.528 11.8751ZM100.866 23.5361C103.163 24.3181 104.447 26.0431 104.447 28.3201C104.447 30.1371 104.109 31.2871 103.276 32.3451C102.059 33.8401 101.676 33.9321 96.7437 34.0241L92.2839 34.1161V28.6881V23.2601H96.2031C98.5681 23.2601 100.393 23.3751 100.866 23.5361Z" fill="white"/>
<path d="M40.8173 18.0621C40.2092 18.2231 39.3983 18.4991 39.0154 18.6371C38.1595 18.9821 36.1999 20.3161 36.1999 20.5691C36.1999 20.6841 36.5378 21.1211 36.9657 21.5811L37.7315 22.4091L38.3622 21.7881C39.4434 20.7761 41.2453 20.2011 43.4076 20.1781C44.9392 20.1551 45.4798 20.2471 46.1104 20.6151C47.1916 21.2821 47.7097 22.3171 47.8673 24.0651L47.9799 25.5601H45.187C42.0336 25.5601 39.9389 25.9511 38.2721 26.8021C33.925 29.0561 34.398 35.3581 39.0154 36.7151C39.9839 37.0141 40.8173 37.0831 42.1237 36.9911C44.4437 36.8301 46.0429 36.0481 47.2592 34.4841L48.1376 33.3341V34.1161C48.1376 34.5301 48.2052 35.2661 48.2728 35.7261C48.4304 36.6001 48.4304 36.6001 49.5341 36.6001H50.6603L50.5251 35.7261C50.4576 35.2661 50.345 32.1381 50.2774 28.7801C50.1197 22.0871 49.9846 21.3281 48.7458 19.8791C47.6196 18.5681 46.0879 17.9241 43.8581 17.8321C42.7093 17.7861 41.493 17.8781 40.8173 18.0621ZM47.8448 28.9641C47.552 32.3221 45.0068 34.5991 41.493 34.6221C40.2993 34.6451 39.7362 34.5301 39.2632 34.2311C38.4298 33.6561 37.9342 32.3911 38.0694 31.1261C38.3397 28.5961 40.2542 27.7221 45.6374 27.6531L47.9799 27.6301L47.8448 28.9641Z" fill="white"/>
<path d="M62.5531 17.9471C61.4494 18.2921 60.4133 18.9591 59.4673 19.8791L58.4988 20.8221V19.5111V18.2001H57.1473H55.7959V27.4001V36.6001H57.1248H58.4537L58.5438 30.7811C58.6114 25.3071 58.6339 24.9161 59.1294 23.8351C60.4358 20.9141 63.3865 19.5571 65.6839 20.7761C67.7336 21.8571 67.9588 22.8231 67.9588 30.8961V36.6001H69.1751H70.3689L70.504 31.3561C70.6392 25.4911 70.8419 24.1801 71.8555 22.6391C73.6124 19.9711 77.5766 19.5801 79.2659 21.9031C79.9191 22.7771 80.1218 24.8931 80.1218 31.0111V36.6001H81.4957H82.8922L82.7571 29.9761C82.6219 22.7541 82.4868 21.8111 81.2705 20.0861C80.8876 19.5801 80.0993 18.8671 79.5136 18.4991C78.5451 17.9241 78.2072 17.8551 76.5179 17.8551C74.8962 17.8551 74.4457 17.9471 73.4772 18.4761C72.3285 19.0971 70.2112 21.1671 70.2112 21.6961C70.1887 21.8571 69.9409 21.5121 69.6481 20.9141C68.9724 19.6261 67.7786 18.5681 66.4047 18.0851C65.3461 17.7171 63.4991 17.6481 62.5531 17.9471Z" fill="white"/>
<path d="M118.84 18.0622C116.52 18.7062 113.952 21.0062 112.826 23.4212C112.263 24.6402 112.218 25.0082 112.218 27.5152C112.218 30.0912 112.263 30.3672 112.871 31.5632C113.907 33.6792 115.281 35.0822 117.241 36.0712C118.907 36.9222 119.02 36.9452 121.43 36.9452C123.682 36.9452 124.065 36.8762 125.237 36.3242C126.881 35.5422 127.894 34.6912 129.021 33.1502C130.98 30.5052 131.363 26.4802 129.967 23.4212C129.156 21.6962 127.557 19.8102 126.138 18.9592C124.201 17.8092 121.137 17.4182 118.84 18.0622ZM124.381 21.0752C127.106 22.4322 128.548 25.4452 128.052 28.7112C127.647 31.3102 126.183 33.1962 123.863 34.0702C121.723 34.8982 119.493 34.6222 117.578 33.3112C114.943 31.4942 113.93 27.6302 115.259 24.5022C116.047 22.6392 117.939 21.0062 119.876 20.4772C121.07 20.1552 123.097 20.4082 124.381 21.0752Z" fill="white"/>
<path d="M141.994 17.993C138.616 18.798 135.733 22.064 135.057 25.859C134.201 30.574 137.152 35.381 141.701 36.715C143.774 37.336 146.612 37.106 148.459 36.163C150.26 35.266 151.995 33.403 152.941 31.379C153.617 29.93 153.662 29.631 153.639 27.515C153.639 24.847 153.189 23.398 151.792 21.535C149.517 18.476 145.711 17.096 141.994 17.993ZM147.085 20.914C148.549 21.581 150.035 23.214 150.621 24.824C151.589 27.423 150.981 30.62 149.112 32.575C147.828 33.932 146.567 34.415 144.314 34.415C142.67 34.415 142.242 34.323 141.251 33.794C139.922 33.081 138.818 31.862 138.143 30.413C137.467 28.872 137.489 26.112 138.21 24.456C138.886 22.915 140.8 21.098 142.242 20.615C143.616 20.178 145.733 20.293 147.085 20.914Z" fill="white"/>
<path d="M47.2588 40.8088C46.8534 41.2228 46.966 41.8898 47.5291 42.1198C48.0471 42.3268 53.6105 43.0398 54.8043 43.0398C55.2998 43.0398 55.5701 42.8788 55.8629 42.3728L56.2684 41.6828L55.5251 41.5678C55.1196 41.4988 53.4078 41.2918 51.7411 41.0848C50.0743 40.9008 48.43 40.6938 48.1147 40.6248C47.7994 40.5788 47.4165 40.6478 47.2588 40.8088Z" fill="white"/>
<path d="M56.8319 42.4651C56.6292 42.7641 56.4716 43.1091 56.4716 43.2241C56.4716 43.3391 57.35 43.5231 58.4537 43.6151C62.0575 43.9141 62.4855 44.1211 59.2645 44.0061L56.0886 43.8911L55.6156 44.6041C55.3454 44.9721 55.1201 45.4091 55.1201 45.5471C55.1201 45.7311 58.3861 45.8001 66.4046 45.8001H77.6891L78.5676 45.0871C79.0406 44.6961 79.446 44.2821 79.446 44.1671C79.446 44.0521 78.455 43.9601 77.2161 43.9601C75.9998 43.9601 71.2473 43.5001 66.5848 42.9251C61.9449 42.3501 57.9356 41.8901 57.6878 41.8901C57.4176 41.8901 57.0347 42.1431 56.8319 42.4651Z" fill="white"/>
<path d="M13.3824 44.2131C12.9319 44.4891 12.8868 45.1331 13.2697 45.5241C13.4725 45.7311 16.0852 45.8001 23.6082 45.8001H33.699L34.1495 45.1331C34.4198 44.7651 34.6225 44.3511 34.6225 44.2131C34.6225 43.8681 13.968 43.8681 13.3824 44.2131Z" fill="white"/>
<path d="M35.5237 44.6961C35.276 45.1101 35.0732 45.5241 35.0732 45.6161C35.0732 45.7311 39.2627 45.8001 44.3982 45.8001H53.7456L54.1961 45.1331C54.4664 44.7651 54.6691 44.3511 54.6691 44.2131C54.6691 44.0291 51.9437 43.9601 45.3216 43.9601H35.9742L35.5237 44.6961Z" fill="white"/>
<path d="M79.9636 44.903C79.4231 45.409 78.9951 45.892 78.9951 45.984C78.9951 46.076 79.2654 46.191 79.6258 46.214C80.279 46.26 80.7069 46.306 90.5724 47.525L97.0819 48.33L97.9603 47.732C98.4333 47.387 98.8162 47.042 98.8162 46.95C98.8162 46.881 97.0143 46.605 94.8295 46.352L90.8202 45.915L100.325 45.846L109.83 45.8L110.281 45.133C110.551 44.765 110.754 44.351 110.754 44.213C110.754 44.029 106.497 43.96 95.843 43.96L80.9097 43.983L79.9636 44.903Z" fill="white"/>
<path d="M111.677 44.6271C111.407 44.9951 111.204 45.4091 111.204 45.5471C111.204 45.7311 114.065 45.8001 121.07 45.8001H130.935L131.881 45.0641C132.399 44.6501 132.827 44.2361 132.827 44.1441C132.827 44.0521 128.165 43.9601 122.489 43.9601H112.128L111.677 44.6271Z" fill="white"/>
<path d="M133.683 44.6041C133.21 44.9491 132.827 45.3631 132.827 45.5011C132.827 45.7311 135.012 45.8001 143.053 45.8001C148.684 45.8001 153.437 45.7311 153.639 45.6621C154.112 45.4781 154.112 44.2821 153.639 44.0981C153.437 44.0291 149.067 43.9601 143.909 43.9601L134.516 43.9831L133.683 44.6041Z" fill="white"/>
<path d="M99.402 47.7779C99.0641 48.0999 98.8163 48.4219 98.9064 48.4909C98.974 48.5599 100.528 48.7899 102.353 48.9969L105.686 49.3879L103.884 49.5489C102.893 49.6409 96.3612 49.9169 89.3563 50.1929L76.6303 50.6759L76.1347 51.2969C75.1887 52.4239 75.3689 52.5389 77.9366 52.3779C79.198 52.2859 86.4282 51.9639 93.9737 51.6419C101.542 51.3429 109.65 50.9979 111.993 50.8829C116.205 50.6989 116.385 50.7219 124.268 51.6879L132.264 52.6999L133.436 52.1709C134.494 51.7109 134.945 51.3429 134.472 51.2969C134.359 51.2969 132.467 51.0669 130.237 50.7679L126.183 50.2619L130.012 50.1009C144.562 49.5489 151.793 49.2269 152.829 49.1119C153.932 48.9969 154 48.9509 154 48.3299C154 47.9619 153.91 47.6169 153.797 47.5479C153.707 47.4789 151.432 47.5249 148.797 47.6399C146.139 47.7549 137.738 48.1229 130.125 48.4449L116.272 49.0429L108.659 48.1229C104.47 47.5939 100.821 47.1799 100.551 47.1799C100.28 47.1799 99.7624 47.4559 99.402 47.7779Z" fill="white"/>
<path d="M65.3006 51.228C58.7686 51.527 58.0479 51.642 58.0479 52.355C58.0479 53.16 58.5434 53.206 65.1879 52.93C74.4453 52.562 74.4228 52.585 74.8282 51.78C75.0084 51.412 75.1661 51.067 75.1661 50.975C75.1661 50.814 73.2065 50.86 65.3006 51.228Z" fill="white"/>
<path d="M135.147 52.079C134.224 52.539 133.908 52.93 134.426 52.93C134.539 52.93 138.413 53.39 142.986 53.965C147.58 54.54 151.815 55 152.446 55C153.459 55 153.549 54.954 153.549 54.448C153.549 54.126 153.437 53.804 153.302 53.712C153.054 53.551 137.377 51.55 136.544 51.573C136.296 51.573 135.665 51.803 135.147 52.079Z" fill="white"/>
</g>
<g filter="url(#filter1_d)">
<path d="M135.008 67.952C134.992 66.304 133.904 65.376 131.968 65.376C130.016 65.376 128.752 66.384 128.752 67.936C128.752 69.248 129.424 69.872 131.408 70.352L132.656 70.656C133.584 70.88 133.952 71.216 133.952 71.824C133.952 72.608 133.168 73.136 132 73.136C131.28 73.136 130.672 72.928 130.336 72.576C130.128 72.336 130.032 72.096 129.952 71.504H128.544C128.608 73.44 129.696 74.368 131.888 74.368C134 74.368 135.344 73.328 135.344 71.712C135.344 70.464 134.64 69.776 132.976 69.376L131.696 69.072C130.608 68.816 130.144 68.464 130.144 67.872C130.144 67.104 130.832 66.608 131.92 66.608C132.992 66.608 133.568 67.072 133.6 67.952H135.008ZM136.864 77.488H138.208V73.12C138.912 73.984 139.696 74.368 140.784 74.368C142.944 74.368 144.368 72.624 144.368 69.952C144.368 67.136 142.992 65.376 140.768 65.376C139.632 65.376 138.72 65.888 138.096 66.88V65.616H136.864V77.488ZM140.544 66.624C142.016 66.624 142.976 67.92 142.976 69.92C142.976 71.824 142 73.12 140.544 73.12C139.136 73.12 138.208 71.84 138.208 69.872C138.208 67.904 139.136 66.624 140.544 66.624ZM153.451 73.216C153.307 73.248 153.243 73.248 153.163 73.248C152.699 73.248 152.443 73.008 152.443 72.592V67.664C152.443 66.176 151.355 65.376 149.291 65.376C148.075 65.376 147.067 65.728 146.507 66.352C146.123 66.784 145.963 67.264 145.931 68.096H147.275C147.387 67.072 147.995 66.608 149.243 66.608C150.443 66.608 151.115 67.056 151.115 67.856V68.208C151.115 68.768 150.779 69.008 149.723 69.136C147.835 69.376 147.547 69.44 147.035 69.648C146.059 70.048 145.563 70.8 145.563 71.888C145.563 73.408 146.619 74.368 148.315 74.368C149.371 74.368 150.219 74 151.163 73.136C151.259 73.984 151.675 74.368 152.539 74.368C152.811 74.368 153.019 74.336 153.451 74.224V73.216ZM151.115 71.36C151.115 71.808 150.987 72.08 150.587 72.448C150.043 72.944 149.387 73.2 148.603 73.2C147.563 73.2 146.955 72.704 146.955 71.856C146.955 70.976 147.547 70.528 148.971 70.32C150.379 70.128 150.667 70.064 151.115 69.856V71.36Z" fill="white"/>
</g>
<defs>
<filter id="filter0_d" x="0" y="0" width="167" height="72" filterUnits="userSpaceOnUse" color-interpolation-filters="sRGB">
<feFlood flood-opacity="0" result="BackgroundImageFix"/>
<feColorMatrix in="SourceAlpha" type="matrix" values="0 0 0 0 0 0 0 0 0 0 0 0 0 0 0 0 0 0 127 0"/>
<feOffset dy="4"/>
<feGaussianBlur stdDeviation="6.5"/>
<feColorMatrix type="matrix" values="0 0 0 0 1 0 0 0 0 1 0 0 0 0 1 0 0 0 0.44 0"/>
<feBlend mode="normal" in2="BackgroundImageFix" result="effect1_dropShadow"/>
<feBlend mode="normal" in="SourceGraphic" in2="effect1_dropShadow" result="shape"/>
</filter>
<filter id="filter1_d" x="115.544" y="56.376" width="50.9066" height="38.112" filterUnits="userSpaceOnUse" color-interpolation-filters="sRGB">
<feFlood flood-opacity="0" result="BackgroundImageFix"/>
<feColorMatrix in="SourceAlpha" type="matrix" values="0 0 0 0 0 0 0 0 0 0 0 0 0 0 0 0 0 0 127 0"/>
<feOffset dy="4"/>
<feGaussianBlur stdDeviation="6.5"/>
<feColorMatrix type="matrix" values="0 0 0 0 1 0 0 0 0 1 0 0 0 0 1 0 0 0 0.44 0"/>
<feBlend mode="normal" in2="BackgroundImageFix" result="effect1_dropShadow"/>
<feBlend mode="normal" in="SourceGraphic" in2="effect1_dropShadow" result="shape"/>
</filter>
<clipPath id="clip0">
<rect width="141" height="46" fill="white" transform="translate(13 9)"/>
</clipPath>
</defs>
</svg>
