<svg width="176" height="86" viewBox="0 0 176 86" fill="none" xmlns="http://www.w3.org/2000/svg">
<g clip-path="url(#clip0)">
<path d="M0 17.0715V34.2H7.28179C15.9974 34.2 16.7565 34.029 19.0058 31.7775C20.1304 30.666 20.5521 29.925 21.03 28.5C22.6326 23.3985 21.6767 19.6935 18.1342 17.157L16.7284 16.131L18.0217 14.82C19.6524 13.167 20.2428 11.4855 20.2428 8.436C20.2428 4.7025 18.7246 2.28 15.4914 0.769501C14.3105 0.199501 13.6077 0.142502 7.1131 0.057003L0 -0.0569992V17.0715ZM14.7323 4.104C17.0939 5.5005 17.8249 8.607 16.4473 11.4855C15.3508 13.851 13.0454 14.592 7.22556 14.478L3.34569 14.3925L3.28946 8.7495L3.23323 3.078L8.29393 3.192C13.2703 3.2775 13.3827 3.2775 14.7323 4.104ZM13.8326 17.955C16.4192 18.696 18.5559 21.4035 18.5559 23.94C18.5559 27.303 16.7847 30.096 14.2543 30.723C13.5233 30.9225 10.8524 31.065 8.09713 31.065H3.23323V24.3675V17.67H8.01278C10.6556 17.67 13.2703 17.8125 13.8326 17.955Z" fill="#FDFFFF"/>
<path d="M95.591 17.0715V34.2H102.845C108.355 34.2 110.436 34.1145 111.448 33.801C115.075 32.6895 117.071 29.7825 117.436 25.0515C117.549 23.427 117.493 22.5435 117.127 21.432C116.565 19.779 114.709 17.499 113.247 16.701L112.263 16.1595L113.472 15.048C115.356 13.281 115.946 11.7705 115.974 8.55C115.974 6.2985 115.862 5.643 115.356 4.674C114.484 2.9925 113.135 1.7385 111.335 0.883495C109.817 0.170998 109.648 0.142498 102.704 0.0569954L95.591 -0.0285034V17.0715ZM109.255 3.5625C111.588 4.2465 112.797 5.9565 112.797 8.5215C112.797 11.172 111.982 12.597 109.789 13.7655C108.805 14.307 108.102 14.3925 103.829 14.478L98.9648 14.592V8.8635V3.135H103.407C106.528 3.135 108.271 3.249 109.255 3.5625ZM109.677 18.012C112.544 18.981 114.147 21.1185 114.147 23.94C114.147 26.1915 113.725 27.6165 112.685 28.9275C111.167 30.78 110.689 30.894 104.532 31.008L98.9648 31.122V24.396V17.67H103.857C106.809 17.67 109.086 17.8125 109.677 18.012Z" fill="#FDFFFF"/>
<path d="M34.7219 11.229C33.9628 11.4285 32.9507 11.7705 32.4727 11.9415C31.4043 12.369 28.9583 14.022 28.9583 14.3355C28.9583 14.478 29.3801 15.0195 29.9142 15.5895L30.8702 16.6155L31.6574 15.846C33.0069 14.592 35.2561 13.8795 37.9551 13.851C39.867 13.8225 40.5417 13.9365 41.329 14.3925C42.6785 15.219 43.3251 16.5015 43.5219 18.6675L43.6625 20.52H40.1762C36.2401 20.52 33.6254 21.0045 31.5449 22.059C26.1187 24.852 26.7091 32.661 32.4727 34.3425C33.6817 34.713 34.7219 34.7985 36.3526 34.6845C39.2484 34.485 41.2446 33.516 42.7628 31.578L43.8593 30.153V31.122C43.8593 31.635 43.9437 32.547 44.028 33.117C44.2248 34.2 44.2248 34.2 45.6024 34.2H47.0082L46.8395 33.117C46.7552 32.547 46.6146 28.671 46.5302 24.51C46.3334 16.2165 46.1647 15.276 44.6184 13.4805C43.2127 11.856 41.3008 11.058 38.5174 10.944C37.0836 10.887 35.5654 11.001 34.7219 11.229ZM43.4938 24.738C43.1283 28.899 39.9513 31.7205 35.5654 31.749C34.0753 31.7775 33.3724 31.635 32.782 31.2645C31.7417 30.552 31.1232 28.9845 31.2919 27.417C31.6293 24.282 34.019 23.199 40.7385 23.1135L43.6625 23.085L43.4938 24.738Z" fill="#FDFFFF"/>
<path d="M61.853 11.0865C60.4754 11.514 59.1821 12.3405 58.0012 13.4805L56.7923 14.649V13.0245V11.4H55.1054H53.4185V22.8V34.2H55.0773H56.7361L56.8485 26.9895C56.9329 20.2065 56.961 19.722 57.5795 18.3825C59.2102 14.763 62.8933 13.0815 65.761 14.592C68.3195 15.9315 68.6006 17.1285 68.6006 27.132V34.2H70.1188H71.6089L71.7776 27.702C71.9463 20.4345 72.1993 18.81 73.4645 16.9005C75.6575 13.5945 80.6057 13.11 82.7143 15.9885C83.5297 17.0715 83.7827 19.6935 83.7827 27.2745V34.2H85.4977H87.2409L87.0722 25.992C86.9035 17.043 86.7348 15.8745 85.2166 13.737C84.7386 13.11 83.7546 12.2265 83.0236 11.7705C81.8147 11.058 81.3929 10.9725 79.2843 10.9725C77.26 10.9725 76.6977 11.0865 75.4888 11.742C74.0549 12.5115 71.4121 15.0765 71.4121 15.732C71.384 15.9315 71.0747 15.504 70.7092 14.763C69.8658 13.167 68.3757 11.856 66.6607 11.2575C65.3393 10.8015 63.0338 10.716 61.853 11.0865Z" fill="#FDFFFF"/>
<path d="M132.113 11.229C129.217 12.027 126.012 14.877 124.606 17.8695C123.903 19.38 123.847 19.836 123.847 22.9425C123.847 26.1345 123.903 26.4765 124.662 27.9585C125.955 30.5805 127.67 32.319 130.116 33.5445C132.197 34.599 132.337 34.6275 135.346 34.6275C138.157 34.6275 138.635 34.542 140.097 33.858C142.15 32.889 143.415 31.8345 144.821 29.925C147.267 26.6475 147.744 21.66 146.001 17.8695C144.989 15.732 142.993 13.395 141.222 12.3405C138.804 10.9155 134.98 10.431 132.113 11.229ZM139.029 14.9625C142.431 16.644 144.23 20.3775 143.612 24.4245C143.105 27.645 141.278 29.982 138.382 31.065C135.711 32.091 132.928 31.749 130.538 30.1245C127.249 27.873 125.983 23.085 127.642 19.209C128.626 16.9005 130.988 14.877 133.406 14.2215C134.896 13.8225 137.426 14.136 139.029 14.9625Z" fill="#FDFFFF"/>
<path d="M161.015 11.1435C156.797 12.141 153.199 16.188 152.355 20.8905C151.287 26.733 154.97 32.6895 160.649 34.3425C163.236 35.112 166.778 34.827 169.084 33.6585C171.333 32.547 173.498 30.2385 174.678 27.7305C175.522 25.935 175.578 25.5645 175.55 22.9425C175.55 19.6365 174.988 17.841 173.245 15.5325C170.405 11.742 165.654 10.032 161.015 11.1435ZM167.369 14.763C169.196 15.5895 171.052 17.613 171.783 19.608C172.992 22.8285 172.232 26.79 169.899 29.2125C168.296 30.894 166.722 31.4925 163.91 31.4925C161.858 31.4925 161.324 31.3785 160.087 30.723C158.428 29.8395 157.05 28.329 156.207 26.5335C155.363 24.624 155.392 21.204 156.291 19.152C157.135 17.2425 159.525 14.991 161.324 14.3925C163.039 13.851 165.682 13.9935 167.369 14.763Z" fill="#FDFFFF"/>
<path d="M42.7631 39.4155C42.257 39.9285 42.3976 40.755 43.1005 41.04C43.7471 41.2965 50.6915 42.18 52.1816 42.18C52.8001 42.18 53.1375 41.9805 53.503 41.3535L54.0091 40.4985L53.0813 40.356C52.5752 40.2705 50.4385 40.014 48.358 39.7575C46.2775 39.5295 44.2251 39.273 43.8315 39.1875C43.4379 39.1305 42.9599 39.216 42.7631 39.4155Z" fill="#FDFFFF"/>
<path d="M54.7118 41.4675C54.4588 41.838 54.262 42.2655 54.262 42.408C54.262 42.5505 55.3585 42.7785 56.7361 42.8925C61.2345 43.263 61.7687 43.5195 57.7483 43.377L53.784 43.2345L53.1936 44.118C52.8563 44.574 52.5751 45.1155 52.5751 45.2865C52.5751 45.5145 56.6518 45.6 66.6607 45.6H80.7464L81.8428 44.7165C82.4333 44.232 82.9393 43.719 82.9393 43.5765C82.9393 43.434 81.7023 43.32 80.1559 43.32C78.6377 43.32 72.7055 42.75 66.8857 42.0375C61.094 41.325 56.0895 40.755 55.7802 40.755C55.4428 40.755 54.9649 41.0685 54.7118 41.4675Z" fill="#FDFFFF"/>
<path d="M0.477799 43.6335C-0.0845018 43.9755 -0.140732 44.7735 0.337224 45.258C0.590259 45.5145 3.8516 45.6 13.242 45.6H25.8375L26.3998 44.7735C26.7372 44.3175 26.9903 43.8045 26.9903 43.6335C26.9903 43.206 1.20879 43.206 0.477799 43.6335Z" fill="#FDFFFF"/>
<path d="M28.1147 44.232C27.8054 44.745 27.5524 45.258 27.5524 45.372C27.5524 45.5145 32.7818 45.6 39.192 45.6H50.8597L51.422 44.7735C51.7594 44.3175 52.0125 43.8045 52.0125 43.6335C52.0125 43.4055 48.6105 43.32 40.3447 43.32H28.677L28.1147 44.232Z" fill="#FDFFFF"/>
<path d="M83.5858 44.4885C82.9111 45.1155 82.3769 45.714 82.3769 45.828C82.3769 45.942 82.7143 46.0845 83.1641 46.113C83.9794 46.17 84.5136 46.227 96.828 47.7375L104.953 48.735L106.05 47.994C106.64 47.5665 107.118 47.139 107.118 47.025C107.118 46.9395 104.869 46.5975 102.142 46.284L97.1373 45.7425L109.002 45.657L120.866 45.6L121.429 44.7735C121.766 44.3175 122.019 43.8045 122.019 43.6335C122.019 43.4055 116.705 43.32 103.407 43.32L84.7667 43.3485L83.5858 44.4885Z" fill="#FDFFFF"/>
<path d="M123.172 44.1465C122.835 44.6025 122.582 45.1155 122.582 45.2865C122.582 45.5145 126.152 45.6 134.896 45.6H147.21L148.391 44.688C149.038 44.175 149.572 43.662 149.572 43.548C149.572 43.434 143.752 43.32 136.667 43.32H123.734L123.172 44.1465Z" fill="#FDFFFF"/>
<path d="M150.64 44.118C150.05 44.5455 149.572 45.0585 149.572 45.2295C149.572 45.5145 152.299 45.6 162.336 45.6C169.365 45.6 175.297 45.5145 175.55 45.429C176.141 45.201 176.141 43.719 175.55 43.491C175.297 43.4055 169.843 43.32 163.404 43.32L151.68 43.3485L150.64 44.118Z" fill="#FDFFFF"/>
<path d="M107.849 48.051C107.428 48.45 107.118 48.849 107.231 48.9345C107.315 49.02 109.255 49.305 111.532 49.5615L115.693 50.046L113.444 50.2455C112.207 50.3595 104.054 50.7015 95.31 51.0435L79.425 51.642L78.8065 52.4115C77.6257 53.808 77.8506 53.9505 81.0557 53.751C82.6302 53.637 91.6551 53.238 101.074 52.839C110.52 52.4685 120.642 52.041 123.566 51.8985C128.823 51.6705 129.048 51.699 138.888 52.896L148.869 54.15L150.331 53.4945C151.652 52.9245 152.215 52.4685 151.624 52.4115C151.484 52.4115 149.122 52.1265 146.339 51.756L141.278 51.129L146.058 50.9295C164.22 50.2455 173.245 49.8465 174.538 49.704C175.916 49.5615 176 49.5045 176 48.735C176 48.279 175.888 47.8515 175.747 47.766C175.635 47.6805 172.795 47.7375 169.506 47.88C166.188 48.0225 155.701 48.4785 146.198 48.8775L128.907 49.6185L119.405 48.4785C114.175 47.823 109.621 47.31 109.283 47.31C108.946 47.31 108.299 47.652 107.849 48.051Z" fill="#FDFFFF"/>
<path d="M65.2831 52.326C57.1298 52.6965 56.2301 52.839 56.2301 53.7225C56.2301 54.72 56.8486 54.777 65.1425 54.435C76.6978 53.979 76.6697 54.0075 77.1758 53.01C77.4007 52.554 77.5975 52.1265 77.5975 52.0125C77.5975 51.813 75.1515 51.87 65.2831 52.326Z" fill="#FDFFFF"/>
<path d="M152.468 53.3805C151.315 53.9505 150.921 54.435 151.568 54.435C151.709 54.435 156.544 55.005 162.252 55.7175C167.987 56.43 173.273 57 174.06 57C175.325 57 175.438 56.943 175.438 56.316C175.438 55.917 175.297 55.518 175.128 55.404C174.819 55.2045 155.251 52.725 154.211 52.7535C153.901 52.7535 153.114 53.0385 152.468 53.3805Z" fill="#FDFFFF"/>
</g>
<path d="M146.512 68.928C146.488 66.456 144.856 65.064 141.952 65.064C139.024 65.064 137.128 66.576 137.128 68.904C137.128 70.872 138.136 71.808 141.112 72.528L142.984 72.984C144.376 73.32 144.928 73.824 144.928 74.736C144.928 75.912 143.752 76.704 142 76.704C140.92 76.704 140.008 76.392 139.504 75.864C139.192 75.504 139.048 75.144 138.928 74.256H136.816C136.912 77.16 138.544 78.552 141.832 78.552C145 78.552 147.016 76.992 147.016 74.568C147.016 72.696 145.96 71.664 143.464 71.064L141.544 70.608C139.912 70.224 139.216 69.696 139.216 68.808C139.216 67.656 140.248 66.912 141.88 66.912C143.488 66.912 144.352 67.608 144.4 68.928H146.512ZM149.296 83.232H151.312V76.68C152.368 77.976 153.544 78.552 155.176 78.552C158.416 78.552 160.552 75.936 160.552 71.928C160.552 67.704 158.488 65.064 155.152 65.064C153.448 65.064 152.08 65.832 151.144 67.32V65.424H149.296V83.232ZM154.816 66.936C157.024 66.936 158.464 68.88 158.464 71.88C158.464 74.736 157 76.68 154.816 76.68C152.704 76.68 151.312 74.76 151.312 71.808C151.312 68.856 152.704 66.936 154.816 66.936ZM174.176 76.824C173.96 76.872 173.864 76.872 173.744 76.872C173.048 76.872 172.664 76.512 172.664 75.888V68.496C172.664 66.264 171.032 65.064 167.936 65.064C166.112 65.064 164.6 65.592 163.76 66.528C163.184 67.176 162.944 67.896 162.896 69.144H164.912C165.08 67.608 165.992 66.912 167.864 66.912C169.664 66.912 170.672 67.584 170.672 68.784V69.312C170.672 70.152 170.168 70.512 168.584 70.704C165.752 71.064 165.32 71.16 164.552 71.472C163.088 72.072 162.344 73.2 162.344 74.832C162.344 77.112 163.928 78.552 166.472 78.552C168.056 78.552 169.328 78 170.744 76.704C170.888 77.976 171.512 78.552 172.808 78.552C173.216 78.552 173.528 78.504 174.176 78.336V76.824ZM170.672 74.04C170.672 74.712 170.48 75.12 169.88 75.672C169.064 76.416 168.08 76.8 166.904 76.8C165.344 76.8 164.432 76.056 164.432 74.784C164.432 73.464 165.32 72.792 167.456 72.48C169.568 72.192 170 72.096 170.672 71.784V74.04Z" fill="white"/>
<defs>
<clipPath id="clip0">
<rect width="176" height="57" fill="white"/>
</clipPath>
</defs>
</svg>
