<svg width="26" height="26" viewBox="0 0 26 26" fill="none" xmlns="http://www.w3.org/2000/svg">
<path d="M25.2919 19.0814L21.6635 15.453C20.3677 14.1572 18.1647 14.6755 17.6464 16.3601C17.2576 17.5264 15.9618 18.1743 14.7955 17.9151C12.2038 17.2672 8.70504 13.898 8.05711 11.1767C7.66836 10.0104 8.44587 8.71453 9.61213 8.32583C11.2967 7.80749 11.8151 5.60455 10.5192 4.3087L6.89085 0.680321C5.85417 -0.226774 4.29915 -0.226774 3.39206 0.680321L0.929942 3.14243C-1.53217 5.73413 1.18911 12.6021 7.2796 18.6926C13.3701 24.7831 20.2381 27.634 22.8298 25.0423L25.2919 22.5802C26.1991 21.5435 26.1991 19.9885 25.2919 19.0814Z" fill="white"/>
</svg>
