<svg width="28" height="28" viewBox="0 0 28 28" fill="none" xmlns="http://www.w3.org/2000/svg">
<path d="M26.8333 12.8333H15.1667V1.16669C15.1667 0.522334 14.6443 0 14 0C13.3556 0 12.8333 0.522334 12.8333 1.16669V12.8334H1.16669C0.522334 12.8333 0 13.3556 0 14C0 14.6443 0.522334 15.1667 1.16669 15.1667H12.8334V26.8334C12.8334 27.4777 13.3557 28.0001 14.0001 28.0001C14.6444 28.0001 15.1667 27.4777 15.1667 26.8334V15.1667H26.8334C27.4778 15.1667 28.0001 14.6443 28.0001 14C28.0001 13.3556 27.4776 12.8333 26.8333 12.8333Z" fill="white"/>
</svg>
