<svg width="57" height="57" viewBox="0 0 57 57" fill="none" xmlns="http://www.w3.org/2000/svg">
<path d="M28.5 0C12.7604 0 0 12.7598 0 28.5C0 44.2402 12.7604 57 28.5 57C44.2396 57 57 44.2402 57 28.5C57 12.7598 44.2396 0 28.5 0ZM42.9567 31.5824C44.2851 32.8798 45.6904 34.1009 46.8829 35.5324C47.4112 36.1657 47.9092 36.8205 48.2882 37.557C48.8293 38.6072 48.3407 39.7589 47.4007 39.8213L41.5619 39.8201C40.0539 39.9449 38.8539 39.3367 37.8422 38.3058C37.0345 37.4841 36.2852 36.6065 35.5074 35.7569C35.1896 35.4082 34.8548 35.0799 34.456 34.8216C33.66 34.3038 32.9685 34.4624 32.5125 35.2939C32.0477 36.14 31.9416 37.0777 31.8973 38.0194C31.8337 39.3962 31.4185 39.756 30.0371 39.8207C27.0854 39.9589 24.2846 39.5111 21.6816 38.0229C19.3852 36.7103 17.6079 34.8578 16.0591 32.7603C13.0432 28.6714 10.7335 24.1837 8.65817 19.5672C8.19109 18.5275 8.5328 17.9712 9.6798 17.9496C11.5854 17.9129 13.4911 17.9175 15.3967 17.9479C16.1723 17.9601 16.6854 18.4039 16.9834 19.1357C18.0132 21.6693 19.2756 24.08 20.8576 26.3156C21.2792 26.911 21.7096 27.5046 22.3224 27.925C22.9988 28.3892 23.5143 28.2358 23.8333 27.4807C24.0374 27.0008 24.1254 26.4877 24.1698 25.9733C24.3214 24.2117 24.3394 22.4507 24.077 20.6961C23.9138 19.5981 23.2962 18.889 22.2017 18.6814C21.6443 18.5759 21.7259 18.3695 21.997 18.0511C22.4676 17.5006 22.9085 17.1601 23.7896 17.1601L30.3864 17.1589C31.4261 17.363 31.6593 17.8295 31.8005 18.8768L31.8063 26.2078C31.794 26.613 32.0098 27.8143 32.7375 28.0796C33.3207 28.272 33.7055 27.8043 34.0542 27.4352C35.6362 25.7564 36.7634 23.775 37.7728 21.7241C38.2183 20.8197 38.6026 19.8838 38.9758 18.9462C39.2533 18.2528 39.6848 17.9117 40.4674 17.9234L46.8199 17.9309C47.0071 17.9309 47.1972 17.9327 47.3826 17.9648C48.4532 18.1479 48.7465 18.6085 48.4153 19.6529C47.894 21.2938 46.8811 22.6606 45.891 24.031C44.8297 25.4981 43.6979 26.9139 42.6471 28.3875C41.6814 29.7345 41.7578 30.4126 42.9567 31.5824Z" fill="white"/>
</svg>
