<svg width="57" height="57" viewBox="0 0 57 57" fill="none" xmlns="http://www.w3.org/2000/svg">
<path d="M33.9551 28.5C33.9551 31.5128 31.5128 33.9551 28.5 33.9551C25.4872 33.9551 23.0449 31.5128 23.0449 28.5C23.0449 25.4872 25.4872 23.0449 28.5 23.0449C31.5128 23.0449 33.9551 25.4872 33.9551 28.5Z" fill="white"/>
<path d="M41.2575 18.8487C40.9953 18.1381 40.5769 17.4949 40.0333 16.967C39.5054 16.4234 38.8626 16.0051 38.1516 15.7428C37.575 15.5189 36.7087 15.2523 35.1132 15.1797C33.3871 15.1009 32.8696 15.084 28.5 15.084C24.1299 15.084 23.6124 15.1005 21.8868 15.1792C20.2913 15.2523 19.4246 15.5189 18.8484 15.7428C18.1374 16.0051 17.4942 16.4234 16.9667 16.967C16.4231 17.4949 16.0047 18.1377 15.7421 18.8487C15.5181 19.4253 15.2515 20.2921 15.1789 21.8876C15.1002 23.6132 15.0832 24.1307 15.0832 28.5008C15.0832 32.8704 15.1002 33.3879 15.1789 35.1139C15.2515 36.7095 15.5181 37.5757 15.7421 38.1524C16.0047 38.8634 16.4226 39.5062 16.9662 40.0341C17.4942 40.5777 18.1369 40.996 18.8479 41.2583C19.4246 41.4827 20.2913 41.7492 21.8868 41.8219C23.6124 41.9006 24.1295 41.9171 28.4996 41.9171C32.8701 41.9171 33.3876 41.9006 35.1127 41.8219C36.7083 41.7492 37.575 41.4827 38.1516 41.2583C39.5789 40.7077 40.707 39.5797 41.2575 38.1524C41.4815 37.5757 41.748 36.7095 41.8211 35.1139C41.8998 33.3879 41.9163 32.8704 41.9163 28.5008C41.9163 24.1307 41.8998 23.6132 41.8211 21.8876C41.7485 20.2921 41.4819 19.4253 41.2575 18.8487ZM28.5 36.9039C23.8586 36.9039 20.096 33.1418 20.096 28.5003C20.096 23.8589 23.8586 20.0968 28.5 20.0968C33.141 20.0968 36.9035 23.8589 36.9035 28.5003C36.9035 33.1418 33.141 36.9039 28.5 36.9039ZM37.2358 21.7284C36.1512 21.7284 35.2719 20.8491 35.2719 19.7645C35.2719 18.68 36.1512 17.8007 37.2358 17.8007C38.3204 17.8007 39.1997 18.68 39.1997 19.7645C39.1992 20.8491 38.3204 21.7284 37.2358 21.7284Z" fill="white"/>
<path d="M28.5 0C12.7623 0 0 12.7623 0 28.5C0 44.2377 12.7623 57 28.5 57C44.2377 57 57 44.2377 57 28.5C57 12.7623 44.2377 0 28.5 0ZM44.7665 35.2471C44.6874 36.9892 44.4104 38.1786 44.0059 39.2197C43.1557 41.418 41.418 43.1557 39.2197 44.0059C38.179 44.4104 36.9892 44.6869 35.2475 44.7665C33.5024 44.8461 32.9449 44.8652 28.5004 44.8652C24.0556 44.8652 23.4985 44.8461 21.7529 44.7665C20.0112 44.6869 18.8214 44.4104 17.7808 44.0059C16.6883 43.595 15.6994 42.9509 14.8819 42.1181C14.0495 41.301 13.4055 40.3117 12.9945 39.2197C12.5901 38.179 12.3131 36.9892 12.2339 35.2475C12.1535 33.5019 12.1348 32.9444 12.1348 28.5C12.1348 24.0556 12.1535 23.4981 12.2335 21.7529C12.3126 20.0108 12.5892 18.8214 12.9936 17.7803C13.4046 16.6883 14.0491 15.699 14.8819 14.8819C15.699 14.0491 16.6883 13.405 17.7803 12.9941C18.8214 12.5896 20.0108 12.3131 21.7529 12.2335C23.4981 12.1539 24.0556 12.1348 28.5 12.1348C32.9444 12.1348 33.5019 12.1539 35.2471 12.2339C36.9892 12.3131 38.1786 12.5896 39.2197 12.9936C40.3117 13.4046 41.301 14.0491 42.1186 14.8819C42.9509 15.6994 43.5954 16.6883 44.0059 17.7803C44.4108 18.8214 44.6874 20.0108 44.767 21.7529C44.8465 23.4981 44.8652 24.0556 44.8652 28.5C44.8652 32.9444 44.8465 33.5019 44.7665 35.2471Z" fill="white"/>
</svg>
