<svg width="34" height="34" viewBox="0 0 34 34" fill="none" xmlns="http://www.w3.org/2000/svg">
<path d="M17 1.4003C16.3722 1.4003 15.8637 1.90879 15.8638 2.53652V15.8638L2.53652 15.8638C1.90871 15.8638 1.40022 16.3723 1.4003 17C1.4003 17.6278 1.90878 18.1363 2.53652 18.1362L15.8638 18.1362L15.8638 31.4635C15.8638 32.0913 16.3723 32.5998 17 32.5997C17.3138 32.5997 17.598 32.4725 17.8036 32.267C18.0091 32.0614 18.1362 31.7773 18.1363 31.4634L18.1363 18.1361H31.4636C31.7774 18.1361 32.0615 18.009 32.2671 17.8034C32.4727 17.5978 32.5998 17.3138 32.5998 16.9998C32.5998 16.372 32.0914 15.8636 31.4636 15.8636L18.1364 15.8636L18.1364 2.53637C18.1363 1.90879 17.6278 1.4003 17 1.4003Z" fill="white"/>
</svg>
