<svg width="33" height="27" viewBox="0 0 33 27" fill="none" xmlns="http://www.w3.org/2000/svg">
<g clip-path="url(#clip0)" filter="url(#filter0_d)">
<path d="M16.8483 19.5787C20.2522 19.5787 19.0385 17.4153 19.3012 16.7933C19.2973 16.3287 19.2934 15.8819 19.3091 15.6102C19.5247 15.6712 20.0336 15.9301 21.0845 16.9557C22.7071 18.5994 23.1218 19.5787 24.4326 19.5787H26.8453C27.61 19.5787 28.0081 19.2608 28.2071 18.9941C28.3993 18.7362 28.5875 18.2835 28.3816 17.5787C27.8434 15.8819 24.7042 12.9518 24.5091 12.6427C24.5385 12.5856 24.5855 12.5098 24.61 12.4705H24.6081C25.2277 11.6486 27.5924 8.09152 27.9404 6.6683C27.9414 6.66633 27.9424 6.66337 27.9424 6.66042C28.1306 6.01082 27.9581 5.58956 27.7796 5.35137C27.511 4.99507 27.0836 4.81495 26.5061 4.81495H24.0934C23.2855 4.81495 22.6728 5.22341 22.363 5.96849C21.8444 7.29231 20.3875 10.0148 19.2953 10.9783C19.262 9.61318 19.2845 8.57085 19.3022 7.79625C19.3375 6.28542 19.4512 4.81495 17.8894 4.81495H14.0973C13.1189 4.81495 12.1826 5.88778 13.1963 7.16141C14.0826 8.27755 13.5149 8.89959 13.7061 11.9961C12.961 11.1939 11.6355 9.02755 10.6983 6.25885C10.4355 5.50983 10.0375 4.81593 8.9169 4.81593H6.50415C5.52572 4.81593 4.94141 5.35137 4.94141 6.24802C4.94141 8.2618 9.3816 19.5787 16.8483 19.5787ZM8.9169 6.29231C9.12964 6.29231 9.15121 6.29231 9.30905 6.74211C10.2689 9.57971 12.4218 13.7785 13.9943 13.7785C15.1757 13.7785 15.1757 12.563 15.1757 12.1053L15.1747 8.4616C15.11 7.25589 14.6728 6.6555 14.3855 6.29133L17.8247 6.29526C17.8267 6.312 17.8051 10.3258 17.8345 11.2982C17.8345 12.6791 18.9267 13.4705 20.6316 11.7382C22.4306 9.69979 23.6747 6.65255 23.7247 6.52853C23.7983 6.35137 23.862 6.29133 24.0934 6.29133H26.5061H26.5159C26.5149 6.29428 26.5149 6.29723 26.514 6.30018C26.2934 7.33365 24.1159 10.627 23.3875 11.6496C23.3757 11.6653 23.3649 11.6821 23.3542 11.6988C23.0336 12.2244 22.7728 12.8051 23.3983 13.622H23.3993C23.4561 13.6909 23.6042 13.8524 23.8198 14.0768C24.4904 14.7716 26.7904 17.1476 26.9944 18.0925C26.8591 18.1142 26.712 18.0984 24.4326 18.1033C23.9473 18.1033 23.5679 17.375 22.1198 15.9085C20.8179 14.6368 19.9728 14.1171 19.2032 14.1171C17.7091 14.1171 17.8179 15.3346 17.8316 16.8071C17.8365 18.4035 17.8267 17.8986 17.8375 17.999C17.7502 18.0335 17.5002 18.1024 16.8483 18.1024C10.6277 18.1024 6.5767 8.18995 6.42082 6.29526C6.47474 6.29034 7.2169 6.2933 8.9169 6.29231Z" fill="white"/>
</g>
<defs>
<filter id="filter0_d" x="0.941406" y="-0.614182" width="31.5294" height="31.622" filterUnits="userSpaceOnUse" color-interpolation-filters="sRGB">
<feFlood flood-opacity="0" result="BackgroundImageFix"/>
<feColorMatrix in="SourceAlpha" type="matrix" values="0 0 0 0 0 0 0 0 0 0 0 0 0 0 0 0 0 0 127 0"/>
<feOffset dy="3"/>
<feGaussianBlur stdDeviation="2"/>
<feColorMatrix type="matrix" values="0 0 0 0 1 0 0 0 0 1 0 0 0 0 1 0 0 0 0.32 0"/>
<feBlend mode="normal" in2="BackgroundImageFix" result="effect1_dropShadow"/>
<feBlend mode="normal" in="SourceGraphic" in2="effect1_dropShadow" result="shape"/>
</filter>
<clipPath id="clip0">
<rect width="23.5294" height="23.622" fill="white" transform="translate(4.94141 0.385818)"/>
</clipPath>
</defs>
</svg>
