<svg width="40" height="26" viewBox="0 0 40 26" fill="none" xmlns="http://www.w3.org/2000/svg">
<path d="M20.2417 25.5C26.0283 25.5 23.965 21.8367 24.4117 20.7833C24.405 19.9967 24.3983 19.24 24.425 18.78C24.7917 18.8833 25.6567 19.3217 27.4433 21.0583C30.2017 23.8417 30.9067 25.5 33.135 25.5H37.2367C38.5367 25.5 39.2133 24.9617 39.5517 24.51C39.8783 24.0733 40.1983 23.3067 39.8483 22.1133C38.9333 19.24 33.5967 14.2783 33.265 13.755C33.315 13.6583 33.395 13.53 33.4367 13.4633H33.4333C34.4867 12.0717 38.5067 6.04833 39.0983 3.63833C39.1 3.635 39.1017 3.63 39.1017 3.625C39.4217 2.525 39.1283 1.81167 38.825 1.40833C38.3683 0.805 37.6417 0.5 36.66 0.5H32.5583C31.185 0.5 30.1433 1.19167 29.6167 2.45333C28.735 4.695 26.2583 9.305 24.4017 10.9367C24.345 8.625 24.3833 6.86 24.4133 5.54833C24.4733 2.99 24.6667 0.5 22.0117 0.5H15.565C13.9017 0.5 12.31 2.31667 14.0333 4.47333C15.54 6.36333 14.575 7.41667 14.9 12.66C13.6333 11.3017 11.38 7.63333 9.78667 2.945C9.34 1.67667 8.66333 0.501667 6.75833 0.501667H2.65667C0.993333 0.501667 0 1.40833 0 2.92667C0 6.33667 7.54833 25.5 20.2417 25.5ZM6.75833 3.00167C7.12 3.00167 7.15667 3.00167 7.425 3.76333C9.05667 8.56833 12.7167 15.6783 15.39 15.6783C17.3983 15.6783 17.3983 13.62 17.3983 12.845L17.3967 6.675C17.2867 4.63333 16.5433 3.61667 16.055 3L21.9017 3.00667C21.905 3.035 21.8683 9.83167 21.9183 11.4783C21.9183 13.8167 23.775 15.1567 26.6733 12.2233C29.7317 8.77167 31.8467 3.61167 31.9317 3.40167C32.0567 3.10167 32.165 3 32.5583 3H36.66H36.6767C36.675 3.005 36.675 3.01 36.6733 3.015C36.2983 4.765 32.5967 10.3417 31.3583 12.0733C31.3383 12.1 31.32 12.1283 31.3017 12.1567C30.7567 13.0467 30.3133 14.03 31.3767 15.4133H31.3783C31.475 15.53 31.7267 15.8033 32.0933 16.1833C33.2333 17.36 37.1433 21.3833 37.49 22.9833C37.26 23.02 37.01 22.9933 33.135 23.0017C32.31 23.0017 31.665 21.7683 29.2033 19.285C26.99 17.1317 25.5533 16.2517 24.245 16.2517C21.705 16.2517 21.89 18.3133 21.9133 20.8067C21.9217 23.51 21.905 22.655 21.9233 22.825C21.775 22.8833 21.35 23 20.2417 23C9.66667 23 2.78 6.215 2.515 3.00667C2.60667 2.99833 3.86833 3.00333 6.75833 3.00167Z" fill="white"/>
</svg>
